%TF.GenerationSoftware,KiCad,Pcbnew,(7.0.0-0)*%
%TF.CreationDate,2023-06-03T23:07:31+02:00*%
%TF.ProjectId,Untitled,556e7469-746c-4656-942e-6b696361645f,rev?*%
%TF.SameCoordinates,Original*%
%TF.FileFunction,Legend,Top*%
%TF.FilePolarity,Positive*%
%FSLAX46Y46*%
G04 Gerber Fmt 4.6, Leading zero omitted, Abs format (unit mm)*
G04 Created by KiCad (PCBNEW (7.0.0-0)) date 2023-06-03 23:07:31*
%MOMM*%
%LPD*%
G01*
G04 APERTURE LIST*
%ADD10C,0.150000*%
%ADD11C,0.300000*%
%ADD12C,0.125000*%
%ADD13C,0.120000*%
G04 APERTURE END LIST*
D10*
X135532380Y-31357142D02*
X135532380Y-30738095D01*
X135532380Y-30738095D02*
X135913333Y-31071428D01*
X135913333Y-31071428D02*
X135913333Y-30928571D01*
X135913333Y-30928571D02*
X135960952Y-30833333D01*
X135960952Y-30833333D02*
X136008571Y-30785714D01*
X136008571Y-30785714D02*
X136103809Y-30738095D01*
X136103809Y-30738095D02*
X136341904Y-30738095D01*
X136341904Y-30738095D02*
X136437142Y-30785714D01*
X136437142Y-30785714D02*
X136484761Y-30833333D01*
X136484761Y-30833333D02*
X136532380Y-30928571D01*
X136532380Y-30928571D02*
X136532380Y-31214285D01*
X136532380Y-31214285D02*
X136484761Y-31309523D01*
X136484761Y-31309523D02*
X136437142Y-31357142D01*
X135532380Y-30452380D02*
X136532380Y-30119047D01*
X136532380Y-30119047D02*
X135532380Y-29785714D01*
X135532380Y-29547618D02*
X135532380Y-28928571D01*
X135532380Y-28928571D02*
X135913333Y-29261904D01*
X135913333Y-29261904D02*
X135913333Y-29119047D01*
X135913333Y-29119047D02*
X135960952Y-29023809D01*
X135960952Y-29023809D02*
X136008571Y-28976190D01*
X136008571Y-28976190D02*
X136103809Y-28928571D01*
X136103809Y-28928571D02*
X136341904Y-28928571D01*
X136341904Y-28928571D02*
X136437142Y-28976190D01*
X136437142Y-28976190D02*
X136484761Y-29023809D01*
X136484761Y-29023809D02*
X136532380Y-29119047D01*
X136532380Y-29119047D02*
X136532380Y-29404761D01*
X136532380Y-29404761D02*
X136484761Y-29499999D01*
X136484761Y-29499999D02*
X136437142Y-29547618D01*
X136532380Y-28499999D02*
X135532380Y-28499999D01*
X135532380Y-28499999D02*
X135532380Y-28261904D01*
X135532380Y-28261904D02*
X135580000Y-28119047D01*
X135580000Y-28119047D02*
X135675238Y-28023809D01*
X135675238Y-28023809D02*
X135770476Y-27976190D01*
X135770476Y-27976190D02*
X135960952Y-27928571D01*
X135960952Y-27928571D02*
X136103809Y-27928571D01*
X136103809Y-27928571D02*
X136294285Y-27976190D01*
X136294285Y-27976190D02*
X136389523Y-28023809D01*
X136389523Y-28023809D02*
X136484761Y-28119047D01*
X136484761Y-28119047D02*
X136532380Y-28261904D01*
X136532380Y-28261904D02*
X136532380Y-28499999D01*
X164484761Y-29559523D02*
X164532380Y-29416666D01*
X164532380Y-29416666D02*
X164532380Y-29178571D01*
X164532380Y-29178571D02*
X164484761Y-29083333D01*
X164484761Y-29083333D02*
X164437142Y-29035714D01*
X164437142Y-29035714D02*
X164341904Y-28988095D01*
X164341904Y-28988095D02*
X164246666Y-28988095D01*
X164246666Y-28988095D02*
X164151428Y-29035714D01*
X164151428Y-29035714D02*
X164103809Y-29083333D01*
X164103809Y-29083333D02*
X164056190Y-29178571D01*
X164056190Y-29178571D02*
X164008571Y-29369047D01*
X164008571Y-29369047D02*
X163960952Y-29464285D01*
X163960952Y-29464285D02*
X163913333Y-29511904D01*
X163913333Y-29511904D02*
X163818095Y-29559523D01*
X163818095Y-29559523D02*
X163722857Y-29559523D01*
X163722857Y-29559523D02*
X163627619Y-29511904D01*
X163627619Y-29511904D02*
X163580000Y-29464285D01*
X163580000Y-29464285D02*
X163532380Y-29369047D01*
X163532380Y-29369047D02*
X163532380Y-29130952D01*
X163532380Y-29130952D02*
X163580000Y-28988095D01*
X164484761Y-28607142D02*
X164532380Y-28464285D01*
X164532380Y-28464285D02*
X164532380Y-28226190D01*
X164532380Y-28226190D02*
X164484761Y-28130952D01*
X164484761Y-28130952D02*
X164437142Y-28083333D01*
X164437142Y-28083333D02*
X164341904Y-28035714D01*
X164341904Y-28035714D02*
X164246666Y-28035714D01*
X164246666Y-28035714D02*
X164151428Y-28083333D01*
X164151428Y-28083333D02*
X164103809Y-28130952D01*
X164103809Y-28130952D02*
X164056190Y-28226190D01*
X164056190Y-28226190D02*
X164008571Y-28416666D01*
X164008571Y-28416666D02*
X163960952Y-28511904D01*
X163960952Y-28511904D02*
X163913333Y-28559523D01*
X163913333Y-28559523D02*
X163818095Y-28607142D01*
X163818095Y-28607142D02*
X163722857Y-28607142D01*
X163722857Y-28607142D02*
X163627619Y-28559523D01*
X163627619Y-28559523D02*
X163580000Y-28511904D01*
X163580000Y-28511904D02*
X163532380Y-28416666D01*
X163532380Y-28416666D02*
X163532380Y-28178571D01*
X163532380Y-28178571D02*
X163580000Y-28035714D01*
X150484761Y-30559523D02*
X150532380Y-30416666D01*
X150532380Y-30416666D02*
X150532380Y-30178571D01*
X150532380Y-30178571D02*
X150484761Y-30083333D01*
X150484761Y-30083333D02*
X150437142Y-30035714D01*
X150437142Y-30035714D02*
X150341904Y-29988095D01*
X150341904Y-29988095D02*
X150246666Y-29988095D01*
X150246666Y-29988095D02*
X150151428Y-30035714D01*
X150151428Y-30035714D02*
X150103809Y-30083333D01*
X150103809Y-30083333D02*
X150056190Y-30178571D01*
X150056190Y-30178571D02*
X150008571Y-30369047D01*
X150008571Y-30369047D02*
X149960952Y-30464285D01*
X149960952Y-30464285D02*
X149913333Y-30511904D01*
X149913333Y-30511904D02*
X149818095Y-30559523D01*
X149818095Y-30559523D02*
X149722857Y-30559523D01*
X149722857Y-30559523D02*
X149627619Y-30511904D01*
X149627619Y-30511904D02*
X149580000Y-30464285D01*
X149580000Y-30464285D02*
X149532380Y-30369047D01*
X149532380Y-30369047D02*
X149532380Y-30130952D01*
X149532380Y-30130952D02*
X149580000Y-29988095D01*
X150532380Y-29559523D02*
X149532380Y-29559523D01*
X149532380Y-29559523D02*
X149532380Y-29321428D01*
X149532380Y-29321428D02*
X149580000Y-29178571D01*
X149580000Y-29178571D02*
X149675238Y-29083333D01*
X149675238Y-29083333D02*
X149770476Y-29035714D01*
X149770476Y-29035714D02*
X149960952Y-28988095D01*
X149960952Y-28988095D02*
X150103809Y-28988095D01*
X150103809Y-28988095D02*
X150294285Y-29035714D01*
X150294285Y-29035714D02*
X150389523Y-29083333D01*
X150389523Y-29083333D02*
X150484761Y-29178571D01*
X150484761Y-29178571D02*
X150532380Y-29321428D01*
X150532380Y-29321428D02*
X150532380Y-29559523D01*
X150246666Y-28607142D02*
X150246666Y-28130952D01*
X150532380Y-28702380D02*
X149532380Y-28369047D01*
X149532380Y-28369047D02*
X150532380Y-28035714D01*
X139080000Y-29988095D02*
X139032380Y-30083333D01*
X139032380Y-30083333D02*
X139032380Y-30226190D01*
X139032380Y-30226190D02*
X139080000Y-30369047D01*
X139080000Y-30369047D02*
X139175238Y-30464285D01*
X139175238Y-30464285D02*
X139270476Y-30511904D01*
X139270476Y-30511904D02*
X139460952Y-30559523D01*
X139460952Y-30559523D02*
X139603809Y-30559523D01*
X139603809Y-30559523D02*
X139794285Y-30511904D01*
X139794285Y-30511904D02*
X139889523Y-30464285D01*
X139889523Y-30464285D02*
X139984761Y-30369047D01*
X139984761Y-30369047D02*
X140032380Y-30226190D01*
X140032380Y-30226190D02*
X140032380Y-30130952D01*
X140032380Y-30130952D02*
X139984761Y-29988095D01*
X139984761Y-29988095D02*
X139937142Y-29940476D01*
X139937142Y-29940476D02*
X139603809Y-29940476D01*
X139603809Y-29940476D02*
X139603809Y-30130952D01*
X140032380Y-29511904D02*
X139032380Y-29511904D01*
X139032380Y-29511904D02*
X140032380Y-28940476D01*
X140032380Y-28940476D02*
X139032380Y-28940476D01*
X140032380Y-28464285D02*
X139032380Y-28464285D01*
X139032380Y-28464285D02*
X139032380Y-28226190D01*
X139032380Y-28226190D02*
X139080000Y-28083333D01*
X139080000Y-28083333D02*
X139175238Y-27988095D01*
X139175238Y-27988095D02*
X139270476Y-27940476D01*
X139270476Y-27940476D02*
X139460952Y-27892857D01*
X139460952Y-27892857D02*
X139603809Y-27892857D01*
X139603809Y-27892857D02*
X139794285Y-27940476D01*
X139794285Y-27940476D02*
X139889523Y-27988095D01*
X139889523Y-27988095D02*
X139984761Y-28083333D01*
X139984761Y-28083333D02*
X140032380Y-28226190D01*
X140032380Y-28226190D02*
X140032380Y-28464285D01*
D11*
G36*
X122871429Y-46164286D02*
G01*
X115335714Y-46164286D01*
X115335714Y-43976067D01*
X116130284Y-43976067D01*
X116135714Y-43989159D01*
X116135714Y-44094069D01*
X116131853Y-44129829D01*
X116145560Y-44157244D01*
X116154198Y-44186662D01*
X116164909Y-44195943D01*
X116214567Y-44295262D01*
X116219933Y-44319923D01*
X116249131Y-44349121D01*
X116277308Y-44379413D01*
X116280151Y-44380139D01*
X116309204Y-44409192D01*
X116322094Y-44430895D01*
X116359068Y-44449382D01*
X116395341Y-44469189D01*
X116398263Y-44468979D01*
X116480449Y-44510072D01*
X116492319Y-44522696D01*
X116519072Y-44529384D01*
X116523636Y-44531666D01*
X116539926Y-44534597D01*
X116804785Y-44600812D01*
X116911146Y-44653992D01*
X116948149Y-44690995D01*
X116992857Y-44780411D01*
X116992857Y-44852447D01*
X116948151Y-44941857D01*
X116911145Y-44978863D01*
X116821731Y-45023571D01*
X116524343Y-45023571D01*
X116312687Y-44953019D01*
X116247121Y-44950647D01*
X116171343Y-44995562D01*
X116131877Y-45074315D01*
X116141254Y-45161902D01*
X116196496Y-45230516D01*
X116434725Y-45309926D01*
X116455956Y-45323571D01*
X116497268Y-45323571D01*
X116538593Y-45325066D01*
X116541115Y-45323571D01*
X116849066Y-45323571D01*
X116884830Y-45327432D01*
X116912245Y-45313724D01*
X116941662Y-45305087D01*
X116950943Y-45294375D01*
X117050261Y-45244716D01*
X117074922Y-45239352D01*
X117104133Y-45210140D01*
X117134413Y-45181975D01*
X117135139Y-45179134D01*
X117164193Y-45150080D01*
X117185895Y-45137191D01*
X117204378Y-45100224D01*
X117224188Y-45063946D01*
X117223978Y-45061023D01*
X117273409Y-44962162D01*
X117292857Y-44931901D01*
X117292857Y-44901248D01*
X117298287Y-44871076D01*
X117292857Y-44857984D01*
X117292857Y-44753076D01*
X117296718Y-44717312D01*
X117283010Y-44689896D01*
X117274373Y-44660480D01*
X117263661Y-44651198D01*
X117214002Y-44551880D01*
X117208638Y-44527219D01*
X117179416Y-44497997D01*
X117151261Y-44467729D01*
X117148421Y-44467002D01*
X117119363Y-44437945D01*
X117106476Y-44416247D01*
X117069522Y-44397770D01*
X117033231Y-44377953D01*
X117030306Y-44378162D01*
X116948119Y-44337068D01*
X116936251Y-44324446D01*
X116909499Y-44317758D01*
X116904933Y-44315475D01*
X116888635Y-44312542D01*
X116623783Y-44246329D01*
X116517425Y-44193150D01*
X116480419Y-44156145D01*
X116435714Y-44066733D01*
X116435714Y-43994695D01*
X116480420Y-43905281D01*
X116517424Y-43868277D01*
X116606838Y-43823571D01*
X116904230Y-43823571D01*
X117115883Y-43894123D01*
X117181450Y-43896495D01*
X117257227Y-43851580D01*
X117296694Y-43772827D01*
X117288450Y-43695820D01*
X117416686Y-43695820D01*
X117453279Y-43775947D01*
X117527384Y-43823571D01*
X117849999Y-43823571D01*
X117849999Y-45195139D01*
X117868483Y-45258091D01*
X117935056Y-45315776D01*
X118022248Y-45328313D01*
X118102375Y-45291720D01*
X118149999Y-45217615D01*
X118149999Y-45195139D01*
X119678570Y-45195139D01*
X119697054Y-45258091D01*
X119763627Y-45315776D01*
X119850819Y-45328313D01*
X119930946Y-45291720D01*
X119978570Y-45217615D01*
X119978570Y-43709751D01*
X120390768Y-43709751D01*
X120392856Y-43713405D01*
X120392856Y-45195139D01*
X120411340Y-45258091D01*
X120477913Y-45315776D01*
X120565105Y-45328313D01*
X120645232Y-45291720D01*
X120692856Y-45217615D01*
X120692856Y-44238405D01*
X121261031Y-45232712D01*
X121268483Y-45258091D01*
X121298816Y-45284374D01*
X121327745Y-45312205D01*
X121331875Y-45313020D01*
X121335056Y-45315776D01*
X121374789Y-45321489D01*
X121414166Y-45329260D01*
X121418079Y-45327713D01*
X121422248Y-45328313D01*
X121458771Y-45311633D01*
X121496090Y-45296886D01*
X121498546Y-45293468D01*
X121502375Y-45291720D01*
X121524066Y-45257966D01*
X121547505Y-45225361D01*
X121547724Y-45221154D01*
X121549999Y-45217615D01*
X121549999Y-45177489D01*
X121552088Y-45137391D01*
X121549999Y-45133735D01*
X121549999Y-43652003D01*
X121531515Y-43589051D01*
X121464942Y-43531366D01*
X121377750Y-43518829D01*
X121297623Y-43555422D01*
X121249999Y-43629527D01*
X121249999Y-44608736D01*
X120681823Y-43614429D01*
X120674372Y-43589051D01*
X120644038Y-43562767D01*
X120615110Y-43534937D01*
X120610979Y-43534121D01*
X120607799Y-43531366D01*
X120568065Y-43525652D01*
X120528689Y-43517882D01*
X120524775Y-43519428D01*
X120520607Y-43518829D01*
X120484083Y-43535508D01*
X120446765Y-43550256D01*
X120444308Y-43553673D01*
X120440480Y-43555422D01*
X120418784Y-43589180D01*
X120395350Y-43621782D01*
X120395130Y-43625987D01*
X120392856Y-43629527D01*
X120392856Y-43669664D01*
X120390768Y-43709751D01*
X119978570Y-43709751D01*
X119978570Y-43652003D01*
X119960086Y-43589051D01*
X119893513Y-43531366D01*
X119806321Y-43518829D01*
X119726194Y-43555422D01*
X119678570Y-43629527D01*
X119678570Y-45195139D01*
X118149999Y-45195139D01*
X118149999Y-43823571D01*
X118450139Y-43823571D01*
X118513091Y-43805087D01*
X118570776Y-43738514D01*
X118583313Y-43651322D01*
X118546720Y-43571195D01*
X118472615Y-43523571D01*
X118010730Y-43523571D01*
X117977750Y-43518829D01*
X117967367Y-43523571D01*
X117549860Y-43523571D01*
X117486908Y-43542055D01*
X117429223Y-43608628D01*
X117416686Y-43695820D01*
X117288450Y-43695820D01*
X117287317Y-43685240D01*
X117232075Y-43616625D01*
X116993846Y-43537215D01*
X116972615Y-43523571D01*
X116931302Y-43523571D01*
X116889978Y-43522076D01*
X116887456Y-43523571D01*
X116579503Y-43523571D01*
X116543739Y-43519710D01*
X116516323Y-43533418D01*
X116486908Y-43542055D01*
X116477626Y-43552766D01*
X116378311Y-43602425D01*
X116353650Y-43607790D01*
X116324435Y-43637004D01*
X116294158Y-43665167D01*
X116293431Y-43668007D01*
X116264375Y-43697062D01*
X116242675Y-43709952D01*
X116224194Y-43746912D01*
X116204382Y-43783196D01*
X116204591Y-43786119D01*
X116155159Y-43884982D01*
X116135714Y-43915241D01*
X116135714Y-43945892D01*
X116130284Y-43976067D01*
X115335714Y-43976067D01*
X115335714Y-42585714D01*
X122871429Y-42585714D01*
X122871429Y-46164286D01*
G37*
D10*
X146984761Y-30309523D02*
X147032380Y-30166666D01*
X147032380Y-30166666D02*
X147032380Y-29928571D01*
X147032380Y-29928571D02*
X146984761Y-29833333D01*
X146984761Y-29833333D02*
X146937142Y-29785714D01*
X146937142Y-29785714D02*
X146841904Y-29738095D01*
X146841904Y-29738095D02*
X146746666Y-29738095D01*
X146746666Y-29738095D02*
X146651428Y-29785714D01*
X146651428Y-29785714D02*
X146603809Y-29833333D01*
X146603809Y-29833333D02*
X146556190Y-29928571D01*
X146556190Y-29928571D02*
X146508571Y-30119047D01*
X146508571Y-30119047D02*
X146460952Y-30214285D01*
X146460952Y-30214285D02*
X146413333Y-30261904D01*
X146413333Y-30261904D02*
X146318095Y-30309523D01*
X146318095Y-30309523D02*
X146222857Y-30309523D01*
X146222857Y-30309523D02*
X146127619Y-30261904D01*
X146127619Y-30261904D02*
X146080000Y-30214285D01*
X146080000Y-30214285D02*
X146032380Y-30119047D01*
X146032380Y-30119047D02*
X146032380Y-29880952D01*
X146032380Y-29880952D02*
X146080000Y-29738095D01*
X146937142Y-28738095D02*
X146984761Y-28785714D01*
X146984761Y-28785714D02*
X147032380Y-28928571D01*
X147032380Y-28928571D02*
X147032380Y-29023809D01*
X147032380Y-29023809D02*
X146984761Y-29166666D01*
X146984761Y-29166666D02*
X146889523Y-29261904D01*
X146889523Y-29261904D02*
X146794285Y-29309523D01*
X146794285Y-29309523D02*
X146603809Y-29357142D01*
X146603809Y-29357142D02*
X146460952Y-29357142D01*
X146460952Y-29357142D02*
X146270476Y-29309523D01*
X146270476Y-29309523D02*
X146175238Y-29261904D01*
X146175238Y-29261904D02*
X146080000Y-29166666D01*
X146080000Y-29166666D02*
X146032380Y-29023809D01*
X146032380Y-29023809D02*
X146032380Y-28928571D01*
X146032380Y-28928571D02*
X146080000Y-28785714D01*
X146080000Y-28785714D02*
X146127619Y-28738095D01*
X147032380Y-27833333D02*
X147032380Y-28309523D01*
X147032380Y-28309523D02*
X146032380Y-28309523D01*
X154032380Y-29761904D02*
X153032380Y-29761904D01*
X153032380Y-29761904D02*
X153746666Y-29428571D01*
X153746666Y-29428571D02*
X153032380Y-29095238D01*
X153032380Y-29095238D02*
X154032380Y-29095238D01*
X153032380Y-28428571D02*
X153032380Y-28238095D01*
X153032380Y-28238095D02*
X153080000Y-28142857D01*
X153080000Y-28142857D02*
X153175238Y-28047619D01*
X153175238Y-28047619D02*
X153365714Y-28000000D01*
X153365714Y-28000000D02*
X153699047Y-28000000D01*
X153699047Y-28000000D02*
X153889523Y-28047619D01*
X153889523Y-28047619D02*
X153984761Y-28142857D01*
X153984761Y-28142857D02*
X154032380Y-28238095D01*
X154032380Y-28238095D02*
X154032380Y-28428571D01*
X154032380Y-28428571D02*
X153984761Y-28523809D01*
X153984761Y-28523809D02*
X153889523Y-28619047D01*
X153889523Y-28619047D02*
X153699047Y-28666666D01*
X153699047Y-28666666D02*
X153365714Y-28666666D01*
X153365714Y-28666666D02*
X153175238Y-28619047D01*
X153175238Y-28619047D02*
X153080000Y-28523809D01*
X153080000Y-28523809D02*
X153032380Y-28428571D01*
X125032380Y-31357142D02*
X125032380Y-30738095D01*
X125032380Y-30738095D02*
X125413333Y-31071428D01*
X125413333Y-31071428D02*
X125413333Y-30928571D01*
X125413333Y-30928571D02*
X125460952Y-30833333D01*
X125460952Y-30833333D02*
X125508571Y-30785714D01*
X125508571Y-30785714D02*
X125603809Y-30738095D01*
X125603809Y-30738095D02*
X125841904Y-30738095D01*
X125841904Y-30738095D02*
X125937142Y-30785714D01*
X125937142Y-30785714D02*
X125984761Y-30833333D01*
X125984761Y-30833333D02*
X126032380Y-30928571D01*
X126032380Y-30928571D02*
X126032380Y-31214285D01*
X126032380Y-31214285D02*
X125984761Y-31309523D01*
X125984761Y-31309523D02*
X125937142Y-31357142D01*
X125032380Y-30452380D02*
X126032380Y-30119047D01*
X126032380Y-30119047D02*
X125032380Y-29785714D01*
X125032380Y-29547618D02*
X125032380Y-28928571D01*
X125032380Y-28928571D02*
X125413333Y-29261904D01*
X125413333Y-29261904D02*
X125413333Y-29119047D01*
X125413333Y-29119047D02*
X125460952Y-29023809D01*
X125460952Y-29023809D02*
X125508571Y-28976190D01*
X125508571Y-28976190D02*
X125603809Y-28928571D01*
X125603809Y-28928571D02*
X125841904Y-28928571D01*
X125841904Y-28928571D02*
X125937142Y-28976190D01*
X125937142Y-28976190D02*
X125984761Y-29023809D01*
X125984761Y-29023809D02*
X126032380Y-29119047D01*
X126032380Y-29119047D02*
X126032380Y-29404761D01*
X126032380Y-29404761D02*
X125984761Y-29499999D01*
X125984761Y-29499999D02*
X125937142Y-29547618D01*
X125746666Y-28547618D02*
X125746666Y-28071428D01*
X126032380Y-28642856D02*
X125032380Y-28309523D01*
X125032380Y-28309523D02*
X126032380Y-27976190D01*
X142282380Y-30154761D02*
X143282380Y-29821428D01*
X143282380Y-29821428D02*
X142282380Y-29488095D01*
X143282380Y-29154761D02*
X142282380Y-29154761D01*
X143282380Y-28678571D02*
X142282380Y-28678571D01*
X142282380Y-28678571D02*
X143282380Y-28107143D01*
X143282380Y-28107143D02*
X142282380Y-28107143D01*
X160984761Y-30559523D02*
X161032380Y-30416666D01*
X161032380Y-30416666D02*
X161032380Y-30178571D01*
X161032380Y-30178571D02*
X160984761Y-30083333D01*
X160984761Y-30083333D02*
X160937142Y-30035714D01*
X160937142Y-30035714D02*
X160841904Y-29988095D01*
X160841904Y-29988095D02*
X160746666Y-29988095D01*
X160746666Y-29988095D02*
X160651428Y-30035714D01*
X160651428Y-30035714D02*
X160603809Y-30083333D01*
X160603809Y-30083333D02*
X160556190Y-30178571D01*
X160556190Y-30178571D02*
X160508571Y-30369047D01*
X160508571Y-30369047D02*
X160460952Y-30464285D01*
X160460952Y-30464285D02*
X160413333Y-30511904D01*
X160413333Y-30511904D02*
X160318095Y-30559523D01*
X160318095Y-30559523D02*
X160222857Y-30559523D01*
X160222857Y-30559523D02*
X160127619Y-30511904D01*
X160127619Y-30511904D02*
X160080000Y-30464285D01*
X160080000Y-30464285D02*
X160032380Y-30369047D01*
X160032380Y-30369047D02*
X160032380Y-30130952D01*
X160032380Y-30130952D02*
X160080000Y-29988095D01*
X160937142Y-28988095D02*
X160984761Y-29035714D01*
X160984761Y-29035714D02*
X161032380Y-29178571D01*
X161032380Y-29178571D02*
X161032380Y-29273809D01*
X161032380Y-29273809D02*
X160984761Y-29416666D01*
X160984761Y-29416666D02*
X160889523Y-29511904D01*
X160889523Y-29511904D02*
X160794285Y-29559523D01*
X160794285Y-29559523D02*
X160603809Y-29607142D01*
X160603809Y-29607142D02*
X160460952Y-29607142D01*
X160460952Y-29607142D02*
X160270476Y-29559523D01*
X160270476Y-29559523D02*
X160175238Y-29511904D01*
X160175238Y-29511904D02*
X160080000Y-29416666D01*
X160080000Y-29416666D02*
X160032380Y-29273809D01*
X160032380Y-29273809D02*
X160032380Y-29178571D01*
X160032380Y-29178571D02*
X160080000Y-29035714D01*
X160080000Y-29035714D02*
X160127619Y-28988095D01*
X161032380Y-28559523D02*
X160032380Y-28559523D01*
X161032380Y-27988095D02*
X160460952Y-28416666D01*
X160032380Y-27988095D02*
X160603809Y-28559523D01*
X157532380Y-29261904D02*
X156532380Y-29261904D01*
X156532380Y-29261904D02*
X157246666Y-28928571D01*
X157246666Y-28928571D02*
X156532380Y-28595238D01*
X156532380Y-28595238D02*
X157532380Y-28595238D01*
X157532380Y-28119047D02*
X156532380Y-28119047D01*
D12*
X99229904Y-44173809D02*
X99229904Y-43716666D01*
X100029904Y-43945238D02*
X99229904Y-43945238D01*
X99229904Y-43449999D02*
X99877523Y-43449999D01*
X99877523Y-43449999D02*
X99953714Y-43411904D01*
X99953714Y-43411904D02*
X99991809Y-43373809D01*
X99991809Y-43373809D02*
X100029904Y-43297618D01*
X100029904Y-43297618D02*
X100029904Y-43145237D01*
X100029904Y-43145237D02*
X99991809Y-43069047D01*
X99991809Y-43069047D02*
X99953714Y-43030952D01*
X99953714Y-43030952D02*
X99877523Y-42992856D01*
X99877523Y-42992856D02*
X99229904Y-42992856D01*
X99991809Y-42650000D02*
X100029904Y-42535714D01*
X100029904Y-42535714D02*
X100029904Y-42345238D01*
X100029904Y-42345238D02*
X99991809Y-42269047D01*
X99991809Y-42269047D02*
X99953714Y-42230952D01*
X99953714Y-42230952D02*
X99877523Y-42192857D01*
X99877523Y-42192857D02*
X99801333Y-42192857D01*
X99801333Y-42192857D02*
X99725142Y-42230952D01*
X99725142Y-42230952D02*
X99687047Y-42269047D01*
X99687047Y-42269047D02*
X99648952Y-42345238D01*
X99648952Y-42345238D02*
X99610857Y-42497619D01*
X99610857Y-42497619D02*
X99572761Y-42573809D01*
X99572761Y-42573809D02*
X99534666Y-42611904D01*
X99534666Y-42611904D02*
X99458476Y-42650000D01*
X99458476Y-42650000D02*
X99382285Y-42650000D01*
X99382285Y-42650000D02*
X99306095Y-42611904D01*
X99306095Y-42611904D02*
X99268000Y-42573809D01*
X99268000Y-42573809D02*
X99229904Y-42497619D01*
X99229904Y-42497619D02*
X99229904Y-42307142D01*
X99229904Y-42307142D02*
X99268000Y-42192857D01*
X99610857Y-41849999D02*
X99610857Y-41583333D01*
X100029904Y-41469047D02*
X100029904Y-41849999D01*
X100029904Y-41849999D02*
X99229904Y-41849999D01*
X99229904Y-41849999D02*
X99229904Y-41469047D01*
X100029904Y-41126189D02*
X99229904Y-41126189D01*
X99229904Y-41126189D02*
X100029904Y-40669046D01*
X100029904Y-40669046D02*
X99229904Y-40669046D01*
X99991809Y-40326190D02*
X100029904Y-40211904D01*
X100029904Y-40211904D02*
X100029904Y-40021428D01*
X100029904Y-40021428D02*
X99991809Y-39945237D01*
X99991809Y-39945237D02*
X99953714Y-39907142D01*
X99953714Y-39907142D02*
X99877523Y-39869047D01*
X99877523Y-39869047D02*
X99801333Y-39869047D01*
X99801333Y-39869047D02*
X99725142Y-39907142D01*
X99725142Y-39907142D02*
X99687047Y-39945237D01*
X99687047Y-39945237D02*
X99648952Y-40021428D01*
X99648952Y-40021428D02*
X99610857Y-40173809D01*
X99610857Y-40173809D02*
X99572761Y-40249999D01*
X99572761Y-40249999D02*
X99534666Y-40288094D01*
X99534666Y-40288094D02*
X99458476Y-40326190D01*
X99458476Y-40326190D02*
X99382285Y-40326190D01*
X99382285Y-40326190D02*
X99306095Y-40288094D01*
X99306095Y-40288094D02*
X99268000Y-40249999D01*
X99268000Y-40249999D02*
X99229904Y-40173809D01*
X99229904Y-40173809D02*
X99229904Y-39983332D01*
X99229904Y-39983332D02*
X99268000Y-39869047D01*
X100029904Y-39526189D02*
X99229904Y-39526189D01*
X100029904Y-39069046D02*
X99572761Y-39411904D01*
X99229904Y-39069046D02*
X99687047Y-39526189D01*
X99229904Y-38573808D02*
X99229904Y-38421427D01*
X99229904Y-38421427D02*
X99268000Y-38345237D01*
X99268000Y-38345237D02*
X99344190Y-38269046D01*
X99344190Y-38269046D02*
X99496571Y-38230951D01*
X99496571Y-38230951D02*
X99763238Y-38230951D01*
X99763238Y-38230951D02*
X99915619Y-38269046D01*
X99915619Y-38269046D02*
X99991809Y-38345237D01*
X99991809Y-38345237D02*
X100029904Y-38421427D01*
X100029904Y-38421427D02*
X100029904Y-38573808D01*
X100029904Y-38573808D02*
X99991809Y-38649999D01*
X99991809Y-38649999D02*
X99915619Y-38726189D01*
X99915619Y-38726189D02*
X99763238Y-38764285D01*
X99763238Y-38764285D02*
X99496571Y-38764285D01*
X99496571Y-38764285D02*
X99344190Y-38726189D01*
X99344190Y-38726189D02*
X99268000Y-38649999D01*
X99268000Y-38649999D02*
X99229904Y-38573808D01*
X98963238Y-38649999D02*
X99001333Y-38611904D01*
X99001333Y-38611904D02*
X99039428Y-38649999D01*
X99039428Y-38649999D02*
X99001333Y-38688094D01*
X99001333Y-38688094D02*
X98963238Y-38649999D01*
X98963238Y-38649999D02*
X99039428Y-38649999D01*
X98963238Y-38345237D02*
X99001333Y-38307142D01*
X99001333Y-38307142D02*
X99039428Y-38345237D01*
X99039428Y-38345237D02*
X99001333Y-38383332D01*
X99001333Y-38383332D02*
X98963238Y-38345237D01*
X98963238Y-38345237D02*
X99039428Y-38345237D01*
X100029904Y-37888094D02*
X99229904Y-37888094D01*
X99229904Y-37888094D02*
X100029904Y-37430951D01*
X100029904Y-37430951D02*
X99229904Y-37430951D01*
X99801333Y-37088095D02*
X99801333Y-36707142D01*
X100029904Y-37164285D02*
X99229904Y-36897618D01*
X99229904Y-36897618D02*
X100029904Y-36630952D01*
X99496571Y-35960476D02*
X100029904Y-35770000D01*
X100029904Y-35770000D02*
X99496571Y-35579523D01*
X100029904Y-34855714D02*
X100029904Y-35312857D01*
X100029904Y-35084285D02*
X99229904Y-35084285D01*
X99229904Y-35084285D02*
X99344190Y-35160476D01*
X99344190Y-35160476D02*
X99420380Y-35236666D01*
X99420380Y-35236666D02*
X99458476Y-35312857D01*
X100602095Y-44097619D02*
X100564000Y-44059523D01*
X100564000Y-44059523D02*
X100525904Y-43983333D01*
X100525904Y-43983333D02*
X100525904Y-43792857D01*
X100525904Y-43792857D02*
X100564000Y-43716666D01*
X100564000Y-43716666D02*
X100602095Y-43678571D01*
X100602095Y-43678571D02*
X100678285Y-43640476D01*
X100678285Y-43640476D02*
X100754476Y-43640476D01*
X100754476Y-43640476D02*
X100868761Y-43678571D01*
X100868761Y-43678571D02*
X101325904Y-44135714D01*
X101325904Y-44135714D02*
X101325904Y-43640476D01*
X100525904Y-43145237D02*
X100525904Y-43069047D01*
X100525904Y-43069047D02*
X100564000Y-42992856D01*
X100564000Y-42992856D02*
X100602095Y-42954761D01*
X100602095Y-42954761D02*
X100678285Y-42916666D01*
X100678285Y-42916666D02*
X100830666Y-42878571D01*
X100830666Y-42878571D02*
X101021142Y-42878571D01*
X101021142Y-42878571D02*
X101173523Y-42916666D01*
X101173523Y-42916666D02*
X101249714Y-42954761D01*
X101249714Y-42954761D02*
X101287809Y-42992856D01*
X101287809Y-42992856D02*
X101325904Y-43069047D01*
X101325904Y-43069047D02*
X101325904Y-43145237D01*
X101325904Y-43145237D02*
X101287809Y-43221428D01*
X101287809Y-43221428D02*
X101249714Y-43259523D01*
X101249714Y-43259523D02*
X101173523Y-43297618D01*
X101173523Y-43297618D02*
X101021142Y-43335714D01*
X101021142Y-43335714D02*
X100830666Y-43335714D01*
X100830666Y-43335714D02*
X100678285Y-43297618D01*
X100678285Y-43297618D02*
X100602095Y-43259523D01*
X100602095Y-43259523D02*
X100564000Y-43221428D01*
X100564000Y-43221428D02*
X100525904Y-43145237D01*
X100602095Y-42573809D02*
X100564000Y-42535713D01*
X100564000Y-42535713D02*
X100525904Y-42459523D01*
X100525904Y-42459523D02*
X100525904Y-42269047D01*
X100525904Y-42269047D02*
X100564000Y-42192856D01*
X100564000Y-42192856D02*
X100602095Y-42154761D01*
X100602095Y-42154761D02*
X100678285Y-42116666D01*
X100678285Y-42116666D02*
X100754476Y-42116666D01*
X100754476Y-42116666D02*
X100868761Y-42154761D01*
X100868761Y-42154761D02*
X101325904Y-42611904D01*
X101325904Y-42611904D02*
X101325904Y-42116666D01*
X100525904Y-41849999D02*
X100525904Y-41354761D01*
X100525904Y-41354761D02*
X100830666Y-41621427D01*
X100830666Y-41621427D02*
X100830666Y-41507142D01*
X100830666Y-41507142D02*
X100868761Y-41430951D01*
X100868761Y-41430951D02*
X100906857Y-41392856D01*
X100906857Y-41392856D02*
X100983047Y-41354761D01*
X100983047Y-41354761D02*
X101173523Y-41354761D01*
X101173523Y-41354761D02*
X101249714Y-41392856D01*
X101249714Y-41392856D02*
X101287809Y-41430951D01*
X101287809Y-41430951D02*
X101325904Y-41507142D01*
X101325904Y-41507142D02*
X101325904Y-41735713D01*
X101325904Y-41735713D02*
X101287809Y-41811904D01*
X101287809Y-41811904D02*
X101249714Y-41849999D01*
D11*
G36*
X109704002Y-43868278D02*
G01*
X109800268Y-43964544D01*
X109857142Y-44192036D01*
X109857142Y-44655106D01*
X109800268Y-44882597D01*
X109704002Y-44978863D01*
X109614589Y-45023571D01*
X109399695Y-45023571D01*
X109310283Y-44978865D01*
X109214014Y-44882597D01*
X109157142Y-44655107D01*
X109157142Y-44192035D01*
X109214013Y-43964545D01*
X109310283Y-43868276D01*
X109399695Y-43823571D01*
X109614588Y-43823571D01*
X109704002Y-43868278D01*
G37*
G36*
X114121429Y-46164286D02*
G01*
X104585714Y-46164286D01*
X104585714Y-43976067D01*
X105380284Y-43976067D01*
X105385714Y-43989159D01*
X105385714Y-44094069D01*
X105381853Y-44129829D01*
X105395560Y-44157244D01*
X105404198Y-44186662D01*
X105414909Y-44195943D01*
X105464567Y-44295262D01*
X105469933Y-44319923D01*
X105499131Y-44349121D01*
X105527308Y-44379413D01*
X105530151Y-44380139D01*
X105559204Y-44409192D01*
X105572094Y-44430895D01*
X105609068Y-44449382D01*
X105645341Y-44469189D01*
X105648263Y-44468979D01*
X105730449Y-44510072D01*
X105742319Y-44522696D01*
X105769072Y-44529384D01*
X105773636Y-44531666D01*
X105789926Y-44534597D01*
X106054785Y-44600812D01*
X106161146Y-44653992D01*
X106198149Y-44690995D01*
X106242857Y-44780411D01*
X106242857Y-44852447D01*
X106198151Y-44941857D01*
X106161145Y-44978863D01*
X106071731Y-45023571D01*
X105774343Y-45023571D01*
X105562687Y-44953019D01*
X105497121Y-44950647D01*
X105421343Y-44995562D01*
X105381877Y-45074315D01*
X105391254Y-45161902D01*
X105446496Y-45230516D01*
X105684725Y-45309926D01*
X105705956Y-45323571D01*
X105747268Y-45323571D01*
X105788593Y-45325066D01*
X105791115Y-45323571D01*
X106099066Y-45323571D01*
X106134830Y-45327432D01*
X106162245Y-45313724D01*
X106191662Y-45305087D01*
X106200943Y-45294375D01*
X106300261Y-45244716D01*
X106324922Y-45239352D01*
X106354133Y-45210140D01*
X106384413Y-45181975D01*
X106385139Y-45179134D01*
X106414193Y-45150080D01*
X106435895Y-45137191D01*
X106454378Y-45100224D01*
X106474188Y-45063946D01*
X106473978Y-45061023D01*
X106523409Y-44962162D01*
X106542857Y-44931901D01*
X106542857Y-44901248D01*
X106548287Y-44871076D01*
X106542857Y-44857984D01*
X106542857Y-44753076D01*
X106546718Y-44717312D01*
X106533010Y-44689896D01*
X106524373Y-44660480D01*
X106513661Y-44651198D01*
X106464002Y-44551880D01*
X106458638Y-44527219D01*
X106429416Y-44497997D01*
X106401261Y-44467729D01*
X106398421Y-44467002D01*
X106369363Y-44437945D01*
X106356476Y-44416247D01*
X106319522Y-44397770D01*
X106283231Y-44377953D01*
X106280306Y-44378162D01*
X106198119Y-44337068D01*
X106186251Y-44324446D01*
X106159499Y-44317758D01*
X106154933Y-44315475D01*
X106138635Y-44312542D01*
X105873783Y-44246329D01*
X105767425Y-44193150D01*
X105730419Y-44156145D01*
X105685714Y-44066733D01*
X105685714Y-43994695D01*
X105730420Y-43905281D01*
X105767424Y-43868277D01*
X105856838Y-43823571D01*
X106154230Y-43823571D01*
X106365883Y-43894123D01*
X106431450Y-43896495D01*
X106507227Y-43851580D01*
X106546694Y-43772827D01*
X106538450Y-43695820D01*
X106666686Y-43695820D01*
X106703279Y-43775947D01*
X106777384Y-43823571D01*
X107099999Y-43823571D01*
X107099999Y-45195139D01*
X107118483Y-45258091D01*
X107185056Y-45315776D01*
X107272248Y-45328313D01*
X107352375Y-45291720D01*
X107399999Y-45217615D01*
X107399999Y-44667222D01*
X108850938Y-44667222D01*
X108857142Y-44692038D01*
X108857142Y-44695139D01*
X108862360Y-44712912D01*
X108932481Y-44993396D01*
X108941360Y-45034208D01*
X108958917Y-45051765D01*
X108971480Y-45073178D01*
X108989422Y-45082270D01*
X109102062Y-45194908D01*
X109114951Y-45216609D01*
X109151913Y-45235090D01*
X109188197Y-45254903D01*
X109191120Y-45254693D01*
X109289979Y-45304123D01*
X109320241Y-45323571D01*
X109350894Y-45323571D01*
X109381066Y-45329001D01*
X109394158Y-45323571D01*
X109641924Y-45323571D01*
X109677687Y-45327432D01*
X109705101Y-45313724D01*
X109734519Y-45305087D01*
X109743801Y-45294374D01*
X109843114Y-45244717D01*
X109867778Y-45239352D01*
X109896998Y-45210131D01*
X109927269Y-45181975D01*
X109927995Y-45179134D01*
X110040138Y-45066991D01*
X110070552Y-45038395D01*
X110076573Y-45014307D01*
X110088473Y-44992516D01*
X110087037Y-44972451D01*
X110101264Y-44915545D01*
X110496138Y-44915545D01*
X110509845Y-44942959D01*
X110518483Y-44972377D01*
X110529195Y-44981659D01*
X110578853Y-45080974D01*
X110584219Y-45105637D01*
X110613432Y-45134849D01*
X110641595Y-45165127D01*
X110644436Y-45165853D01*
X110673490Y-45194906D01*
X110686380Y-45216609D01*
X110723354Y-45235096D01*
X110759627Y-45254903D01*
X110762549Y-45254693D01*
X110861408Y-45304123D01*
X110891670Y-45323571D01*
X110922323Y-45323571D01*
X110952495Y-45329001D01*
X110965587Y-45323571D01*
X111213353Y-45323571D01*
X111249116Y-45327432D01*
X111276530Y-45313724D01*
X111305948Y-45305087D01*
X111315230Y-45294374D01*
X111414544Y-45244716D01*
X111439206Y-45239352D01*
X111468420Y-45210137D01*
X111498698Y-45181975D01*
X111499424Y-45179134D01*
X111528480Y-45150079D01*
X111550181Y-45137190D01*
X111568660Y-45100231D01*
X111588474Y-45063946D01*
X111588264Y-45061021D01*
X111637694Y-44962162D01*
X111657142Y-44931901D01*
X111657142Y-44901249D01*
X111662572Y-44871075D01*
X111657142Y-44857983D01*
X111657142Y-43695820D01*
X111852401Y-43695820D01*
X111888994Y-43775947D01*
X111963099Y-43823571D01*
X112285714Y-43823571D01*
X112285714Y-45195139D01*
X112304198Y-45258091D01*
X112370771Y-45315776D01*
X112457963Y-45328313D01*
X112538090Y-45291720D01*
X112585714Y-45217615D01*
X112585714Y-43823571D01*
X112885854Y-43823571D01*
X112948806Y-43805087D01*
X113006491Y-43738514D01*
X113019028Y-43651322D01*
X112982435Y-43571195D01*
X112908330Y-43523571D01*
X112446445Y-43523571D01*
X112413465Y-43518829D01*
X112403082Y-43523571D01*
X111985575Y-43523571D01*
X111922623Y-43542055D01*
X111864938Y-43608628D01*
X111852401Y-43695820D01*
X111657142Y-43695820D01*
X111657142Y-43652003D01*
X111638658Y-43589051D01*
X111572085Y-43531366D01*
X111484893Y-43518829D01*
X111404766Y-43555422D01*
X111357142Y-43629527D01*
X111357142Y-44852447D01*
X111312434Y-44941861D01*
X111275432Y-44978863D01*
X111186018Y-45023571D01*
X110971124Y-45023571D01*
X110881711Y-44978864D01*
X110844705Y-44941859D01*
X110799999Y-44852447D01*
X110799999Y-43652003D01*
X110781515Y-43589051D01*
X110714942Y-43531366D01*
X110627750Y-43518829D01*
X110547623Y-43555422D01*
X110499999Y-43629527D01*
X110499999Y-44879782D01*
X110496138Y-44915545D01*
X110101264Y-44915545D01*
X110146675Y-44733900D01*
X110157142Y-44717615D01*
X110157142Y-44692036D01*
X110157894Y-44689028D01*
X110157142Y-44670523D01*
X110157142Y-44198258D01*
X110163346Y-44179919D01*
X110157142Y-44155103D01*
X110157142Y-44152003D01*
X110151924Y-44134232D01*
X110081798Y-43853732D01*
X110072923Y-43812935D01*
X110055368Y-43795380D01*
X110042803Y-43773963D01*
X110024857Y-43764869D01*
X109912220Y-43652232D01*
X109899332Y-43630533D01*
X109862380Y-43612057D01*
X109826087Y-43592239D01*
X109823162Y-43592448D01*
X109724308Y-43543021D01*
X109694043Y-43523571D01*
X109663390Y-43523571D01*
X109633218Y-43518141D01*
X109620126Y-43523571D01*
X109372360Y-43523571D01*
X109336596Y-43519710D01*
X109309180Y-43533418D01*
X109279765Y-43542055D01*
X109270483Y-43552766D01*
X109171168Y-43602424D01*
X109146506Y-43607790D01*
X109117280Y-43637014D01*
X109087015Y-43665167D01*
X109086288Y-43668006D01*
X108974122Y-43780172D01*
X108943731Y-43808748D01*
X108937710Y-43832831D01*
X108925810Y-43854625D01*
X108927245Y-43874691D01*
X108867608Y-44113240D01*
X108857142Y-44129527D01*
X108857142Y-44155107D01*
X108856390Y-44158115D01*
X108857142Y-44176620D01*
X108857142Y-44648883D01*
X108850938Y-44667222D01*
X107399999Y-44667222D01*
X107399999Y-43823571D01*
X107700139Y-43823571D01*
X107763091Y-43805087D01*
X107820776Y-43738514D01*
X107833313Y-43651322D01*
X107796720Y-43571195D01*
X107722615Y-43523571D01*
X107260730Y-43523571D01*
X107227750Y-43518829D01*
X107217367Y-43523571D01*
X106799860Y-43523571D01*
X106736908Y-43542055D01*
X106679223Y-43608628D01*
X106666686Y-43695820D01*
X106538450Y-43695820D01*
X106537317Y-43685240D01*
X106482075Y-43616625D01*
X106243846Y-43537215D01*
X106222615Y-43523571D01*
X106181302Y-43523571D01*
X106139978Y-43522076D01*
X106137456Y-43523571D01*
X105829503Y-43523571D01*
X105793739Y-43519710D01*
X105766323Y-43533418D01*
X105736908Y-43542055D01*
X105727626Y-43552766D01*
X105628311Y-43602425D01*
X105603650Y-43607790D01*
X105574435Y-43637004D01*
X105544158Y-43665167D01*
X105543431Y-43668007D01*
X105514375Y-43697062D01*
X105492675Y-43709952D01*
X105474194Y-43746912D01*
X105454382Y-43783196D01*
X105454591Y-43786119D01*
X105405159Y-43884982D01*
X105385714Y-43915241D01*
X105385714Y-43945892D01*
X105380284Y-43976067D01*
X104585714Y-43976067D01*
X104585714Y-42585714D01*
X114121429Y-42585714D01*
X114121429Y-46164286D01*
G37*
D10*
%TO.C,SW1*%
X115769761Y-52583332D02*
X115817380Y-52440475D01*
X115817380Y-52440475D02*
X115817380Y-52202380D01*
X115817380Y-52202380D02*
X115769761Y-52107142D01*
X115769761Y-52107142D02*
X115722142Y-52059523D01*
X115722142Y-52059523D02*
X115626904Y-52011904D01*
X115626904Y-52011904D02*
X115531666Y-52011904D01*
X115531666Y-52011904D02*
X115436428Y-52059523D01*
X115436428Y-52059523D02*
X115388809Y-52107142D01*
X115388809Y-52107142D02*
X115341190Y-52202380D01*
X115341190Y-52202380D02*
X115293571Y-52392856D01*
X115293571Y-52392856D02*
X115245952Y-52488094D01*
X115245952Y-52488094D02*
X115198333Y-52535713D01*
X115198333Y-52535713D02*
X115103095Y-52583332D01*
X115103095Y-52583332D02*
X115007857Y-52583332D01*
X115007857Y-52583332D02*
X114912619Y-52535713D01*
X114912619Y-52535713D02*
X114865000Y-52488094D01*
X114865000Y-52488094D02*
X114817380Y-52392856D01*
X114817380Y-52392856D02*
X114817380Y-52154761D01*
X114817380Y-52154761D02*
X114865000Y-52011904D01*
X114817380Y-51678570D02*
X115817380Y-51440475D01*
X115817380Y-51440475D02*
X115103095Y-51249999D01*
X115103095Y-51249999D02*
X115817380Y-51059523D01*
X115817380Y-51059523D02*
X114817380Y-50821428D01*
X115817380Y-49916666D02*
X115817380Y-50488094D01*
X115817380Y-50202380D02*
X114817380Y-50202380D01*
X114817380Y-50202380D02*
X114960238Y-50297618D01*
X114960238Y-50297618D02*
X115055476Y-50392856D01*
X115055476Y-50392856D02*
X115103095Y-50488094D01*
%TO.C,SW2*%
X124319761Y-52583332D02*
X124367380Y-52440475D01*
X124367380Y-52440475D02*
X124367380Y-52202380D01*
X124367380Y-52202380D02*
X124319761Y-52107142D01*
X124319761Y-52107142D02*
X124272142Y-52059523D01*
X124272142Y-52059523D02*
X124176904Y-52011904D01*
X124176904Y-52011904D02*
X124081666Y-52011904D01*
X124081666Y-52011904D02*
X123986428Y-52059523D01*
X123986428Y-52059523D02*
X123938809Y-52107142D01*
X123938809Y-52107142D02*
X123891190Y-52202380D01*
X123891190Y-52202380D02*
X123843571Y-52392856D01*
X123843571Y-52392856D02*
X123795952Y-52488094D01*
X123795952Y-52488094D02*
X123748333Y-52535713D01*
X123748333Y-52535713D02*
X123653095Y-52583332D01*
X123653095Y-52583332D02*
X123557857Y-52583332D01*
X123557857Y-52583332D02*
X123462619Y-52535713D01*
X123462619Y-52535713D02*
X123415000Y-52488094D01*
X123415000Y-52488094D02*
X123367380Y-52392856D01*
X123367380Y-52392856D02*
X123367380Y-52154761D01*
X123367380Y-52154761D02*
X123415000Y-52011904D01*
X123367380Y-51678570D02*
X124367380Y-51440475D01*
X124367380Y-51440475D02*
X123653095Y-51249999D01*
X123653095Y-51249999D02*
X124367380Y-51059523D01*
X124367380Y-51059523D02*
X123367380Y-50821428D01*
X123462619Y-50488094D02*
X123415000Y-50440475D01*
X123415000Y-50440475D02*
X123367380Y-50345237D01*
X123367380Y-50345237D02*
X123367380Y-50107142D01*
X123367380Y-50107142D02*
X123415000Y-50011904D01*
X123415000Y-50011904D02*
X123462619Y-49964285D01*
X123462619Y-49964285D02*
X123557857Y-49916666D01*
X123557857Y-49916666D02*
X123653095Y-49916666D01*
X123653095Y-49916666D02*
X123795952Y-49964285D01*
X123795952Y-49964285D02*
X124367380Y-50535713D01*
X124367380Y-50535713D02*
X124367380Y-49916666D01*
%TO.C,POT4*%
X164047380Y-66862856D02*
X163047380Y-66862856D01*
X163047380Y-66862856D02*
X163047380Y-66481904D01*
X163047380Y-66481904D02*
X163095000Y-66386666D01*
X163095000Y-66386666D02*
X163142619Y-66339047D01*
X163142619Y-66339047D02*
X163237857Y-66291428D01*
X163237857Y-66291428D02*
X163380714Y-66291428D01*
X163380714Y-66291428D02*
X163475952Y-66339047D01*
X163475952Y-66339047D02*
X163523571Y-66386666D01*
X163523571Y-66386666D02*
X163571190Y-66481904D01*
X163571190Y-66481904D02*
X163571190Y-66862856D01*
X163047380Y-65672380D02*
X163047380Y-65481904D01*
X163047380Y-65481904D02*
X163095000Y-65386666D01*
X163095000Y-65386666D02*
X163190238Y-65291428D01*
X163190238Y-65291428D02*
X163380714Y-65243809D01*
X163380714Y-65243809D02*
X163714047Y-65243809D01*
X163714047Y-65243809D02*
X163904523Y-65291428D01*
X163904523Y-65291428D02*
X163999761Y-65386666D01*
X163999761Y-65386666D02*
X164047380Y-65481904D01*
X164047380Y-65481904D02*
X164047380Y-65672380D01*
X164047380Y-65672380D02*
X163999761Y-65767618D01*
X163999761Y-65767618D02*
X163904523Y-65862856D01*
X163904523Y-65862856D02*
X163714047Y-65910475D01*
X163714047Y-65910475D02*
X163380714Y-65910475D01*
X163380714Y-65910475D02*
X163190238Y-65862856D01*
X163190238Y-65862856D02*
X163095000Y-65767618D01*
X163095000Y-65767618D02*
X163047380Y-65672380D01*
X163047380Y-64958094D02*
X163047380Y-64386666D01*
X164047380Y-64672380D02*
X163047380Y-64672380D01*
X163380714Y-63624761D02*
X164047380Y-63624761D01*
X162999761Y-63862856D02*
X163714047Y-64100951D01*
X163714047Y-64100951D02*
X163714047Y-63481904D01*
%TO.C,A6*%
X132581666Y-29714285D02*
X132581666Y-29238095D01*
X132867380Y-29809523D02*
X131867380Y-29476190D01*
X131867380Y-29476190D02*
X132867380Y-29142857D01*
X131867380Y-28380952D02*
X131867380Y-28571428D01*
X131867380Y-28571428D02*
X131915000Y-28666666D01*
X131915000Y-28666666D02*
X131962619Y-28714285D01*
X131962619Y-28714285D02*
X132105476Y-28809523D01*
X132105476Y-28809523D02*
X132295952Y-28857142D01*
X132295952Y-28857142D02*
X132676904Y-28857142D01*
X132676904Y-28857142D02*
X132772142Y-28809523D01*
X132772142Y-28809523D02*
X132819761Y-28761904D01*
X132819761Y-28761904D02*
X132867380Y-28666666D01*
X132867380Y-28666666D02*
X132867380Y-28476190D01*
X132867380Y-28476190D02*
X132819761Y-28380952D01*
X132819761Y-28380952D02*
X132772142Y-28333333D01*
X132772142Y-28333333D02*
X132676904Y-28285714D01*
X132676904Y-28285714D02*
X132438809Y-28285714D01*
X132438809Y-28285714D02*
X132343571Y-28333333D01*
X132343571Y-28333333D02*
X132295952Y-28380952D01*
X132295952Y-28380952D02*
X132248333Y-28476190D01*
X132248333Y-28476190D02*
X132248333Y-28666666D01*
X132248333Y-28666666D02*
X132295952Y-28761904D01*
X132295952Y-28761904D02*
X132343571Y-28809523D01*
X132343571Y-28809523D02*
X132438809Y-28857142D01*
%TO.C,ENC1*%
X98093571Y-59714285D02*
X98093571Y-59380952D01*
X98617380Y-59238095D02*
X98617380Y-59714285D01*
X98617380Y-59714285D02*
X97617380Y-59714285D01*
X97617380Y-59714285D02*
X97617380Y-59238095D01*
X98617380Y-58809523D02*
X97617380Y-58809523D01*
X97617380Y-58809523D02*
X98617380Y-58238095D01*
X98617380Y-58238095D02*
X97617380Y-58238095D01*
X98522142Y-57190476D02*
X98569761Y-57238095D01*
X98569761Y-57238095D02*
X98617380Y-57380952D01*
X98617380Y-57380952D02*
X98617380Y-57476190D01*
X98617380Y-57476190D02*
X98569761Y-57619047D01*
X98569761Y-57619047D02*
X98474523Y-57714285D01*
X98474523Y-57714285D02*
X98379285Y-57761904D01*
X98379285Y-57761904D02*
X98188809Y-57809523D01*
X98188809Y-57809523D02*
X98045952Y-57809523D01*
X98045952Y-57809523D02*
X97855476Y-57761904D01*
X97855476Y-57761904D02*
X97760238Y-57714285D01*
X97760238Y-57714285D02*
X97665000Y-57619047D01*
X97665000Y-57619047D02*
X97617380Y-57476190D01*
X97617380Y-57476190D02*
X97617380Y-57380952D01*
X97617380Y-57380952D02*
X97665000Y-57238095D01*
X97665000Y-57238095D02*
X97712619Y-57190476D01*
X98617380Y-56238095D02*
X98617380Y-56809523D01*
X98617380Y-56523809D02*
X97617380Y-56523809D01*
X97617380Y-56523809D02*
X97760238Y-56619047D01*
X97760238Y-56619047D02*
X97855476Y-56714285D01*
X97855476Y-56714285D02*
X97903095Y-56809523D01*
%TO.C,POT1*%
X114717380Y-67142856D02*
X113717380Y-67142856D01*
X113717380Y-67142856D02*
X113717380Y-66761904D01*
X113717380Y-66761904D02*
X113765000Y-66666666D01*
X113765000Y-66666666D02*
X113812619Y-66619047D01*
X113812619Y-66619047D02*
X113907857Y-66571428D01*
X113907857Y-66571428D02*
X114050714Y-66571428D01*
X114050714Y-66571428D02*
X114145952Y-66619047D01*
X114145952Y-66619047D02*
X114193571Y-66666666D01*
X114193571Y-66666666D02*
X114241190Y-66761904D01*
X114241190Y-66761904D02*
X114241190Y-67142856D01*
X113717380Y-65952380D02*
X113717380Y-65761904D01*
X113717380Y-65761904D02*
X113765000Y-65666666D01*
X113765000Y-65666666D02*
X113860238Y-65571428D01*
X113860238Y-65571428D02*
X114050714Y-65523809D01*
X114050714Y-65523809D02*
X114384047Y-65523809D01*
X114384047Y-65523809D02*
X114574523Y-65571428D01*
X114574523Y-65571428D02*
X114669761Y-65666666D01*
X114669761Y-65666666D02*
X114717380Y-65761904D01*
X114717380Y-65761904D02*
X114717380Y-65952380D01*
X114717380Y-65952380D02*
X114669761Y-66047618D01*
X114669761Y-66047618D02*
X114574523Y-66142856D01*
X114574523Y-66142856D02*
X114384047Y-66190475D01*
X114384047Y-66190475D02*
X114050714Y-66190475D01*
X114050714Y-66190475D02*
X113860238Y-66142856D01*
X113860238Y-66142856D02*
X113765000Y-66047618D01*
X113765000Y-66047618D02*
X113717380Y-65952380D01*
X113717380Y-65238094D02*
X113717380Y-64666666D01*
X114717380Y-64952380D02*
X113717380Y-64952380D01*
X114717380Y-63809523D02*
X114717380Y-64380951D01*
X114717380Y-64095237D02*
X113717380Y-64095237D01*
X113717380Y-64095237D02*
X113860238Y-64190475D01*
X113860238Y-64190475D02*
X113955476Y-64285713D01*
X113955476Y-64285713D02*
X114003095Y-64380951D01*
%TO.C,U1*%
X190142380Y-47951904D02*
X190951904Y-47951904D01*
X190951904Y-47951904D02*
X191047142Y-47904285D01*
X191047142Y-47904285D02*
X191094761Y-47856666D01*
X191094761Y-47856666D02*
X191142380Y-47761428D01*
X191142380Y-47761428D02*
X191142380Y-47570952D01*
X191142380Y-47570952D02*
X191094761Y-47475714D01*
X191094761Y-47475714D02*
X191047142Y-47428095D01*
X191047142Y-47428095D02*
X190951904Y-47380476D01*
X190951904Y-47380476D02*
X190142380Y-47380476D01*
X191142380Y-46380476D02*
X191142380Y-46951904D01*
X191142380Y-46666190D02*
X190142380Y-46666190D01*
X190142380Y-46666190D02*
X190285238Y-46761428D01*
X190285238Y-46761428D02*
X190380476Y-46856666D01*
X190380476Y-46856666D02*
X190428095Y-46951904D01*
%TO.C,J1*%
X123617380Y-33583333D02*
X124331666Y-33583333D01*
X124331666Y-33583333D02*
X124474523Y-33630952D01*
X124474523Y-33630952D02*
X124569761Y-33726190D01*
X124569761Y-33726190D02*
X124617380Y-33869047D01*
X124617380Y-33869047D02*
X124617380Y-33964285D01*
X124617380Y-32583333D02*
X124617380Y-33154761D01*
X124617380Y-32869047D02*
X123617380Y-32869047D01*
X123617380Y-32869047D02*
X123760238Y-32964285D01*
X123760238Y-32964285D02*
X123855476Y-33059523D01*
X123855476Y-33059523D02*
X123903095Y-33154761D01*
%TO.C,A0*%
X129081666Y-29714285D02*
X129081666Y-29238095D01*
X129367380Y-29809523D02*
X128367380Y-29476190D01*
X128367380Y-29476190D02*
X129367380Y-29142857D01*
X128367380Y-28619047D02*
X128367380Y-28523809D01*
X128367380Y-28523809D02*
X128415000Y-28428571D01*
X128415000Y-28428571D02*
X128462619Y-28380952D01*
X128462619Y-28380952D02*
X128557857Y-28333333D01*
X128557857Y-28333333D02*
X128748333Y-28285714D01*
X128748333Y-28285714D02*
X128986428Y-28285714D01*
X128986428Y-28285714D02*
X129176904Y-28333333D01*
X129176904Y-28333333D02*
X129272142Y-28380952D01*
X129272142Y-28380952D02*
X129319761Y-28428571D01*
X129319761Y-28428571D02*
X129367380Y-28523809D01*
X129367380Y-28523809D02*
X129367380Y-28619047D01*
X129367380Y-28619047D02*
X129319761Y-28714285D01*
X129319761Y-28714285D02*
X129272142Y-28761904D01*
X129272142Y-28761904D02*
X129176904Y-28809523D01*
X129176904Y-28809523D02*
X128986428Y-28857142D01*
X128986428Y-28857142D02*
X128748333Y-28857142D01*
X128748333Y-28857142D02*
X128557857Y-28809523D01*
X128557857Y-28809523D02*
X128462619Y-28761904D01*
X128462619Y-28761904D02*
X128415000Y-28714285D01*
X128415000Y-28714285D02*
X128367380Y-28619047D01*
%TO.C,POT3*%
X148667380Y-66862856D02*
X147667380Y-66862856D01*
X147667380Y-66862856D02*
X147667380Y-66481904D01*
X147667380Y-66481904D02*
X147715000Y-66386666D01*
X147715000Y-66386666D02*
X147762619Y-66339047D01*
X147762619Y-66339047D02*
X147857857Y-66291428D01*
X147857857Y-66291428D02*
X148000714Y-66291428D01*
X148000714Y-66291428D02*
X148095952Y-66339047D01*
X148095952Y-66339047D02*
X148143571Y-66386666D01*
X148143571Y-66386666D02*
X148191190Y-66481904D01*
X148191190Y-66481904D02*
X148191190Y-66862856D01*
X147667380Y-65672380D02*
X147667380Y-65481904D01*
X147667380Y-65481904D02*
X147715000Y-65386666D01*
X147715000Y-65386666D02*
X147810238Y-65291428D01*
X147810238Y-65291428D02*
X148000714Y-65243809D01*
X148000714Y-65243809D02*
X148334047Y-65243809D01*
X148334047Y-65243809D02*
X148524523Y-65291428D01*
X148524523Y-65291428D02*
X148619761Y-65386666D01*
X148619761Y-65386666D02*
X148667380Y-65481904D01*
X148667380Y-65481904D02*
X148667380Y-65672380D01*
X148667380Y-65672380D02*
X148619761Y-65767618D01*
X148619761Y-65767618D02*
X148524523Y-65862856D01*
X148524523Y-65862856D02*
X148334047Y-65910475D01*
X148334047Y-65910475D02*
X148000714Y-65910475D01*
X148000714Y-65910475D02*
X147810238Y-65862856D01*
X147810238Y-65862856D02*
X147715000Y-65767618D01*
X147715000Y-65767618D02*
X147667380Y-65672380D01*
X147667380Y-64958094D02*
X147667380Y-64386666D01*
X148667380Y-64672380D02*
X147667380Y-64672380D01*
X147667380Y-64148570D02*
X147667380Y-63529523D01*
X147667380Y-63529523D02*
X148048333Y-63862856D01*
X148048333Y-63862856D02*
X148048333Y-63719999D01*
X148048333Y-63719999D02*
X148095952Y-63624761D01*
X148095952Y-63624761D02*
X148143571Y-63577142D01*
X148143571Y-63577142D02*
X148238809Y-63529523D01*
X148238809Y-63529523D02*
X148476904Y-63529523D01*
X148476904Y-63529523D02*
X148572142Y-63577142D01*
X148572142Y-63577142D02*
X148619761Y-63624761D01*
X148619761Y-63624761D02*
X148667380Y-63719999D01*
X148667380Y-63719999D02*
X148667380Y-64005713D01*
X148667380Y-64005713D02*
X148619761Y-64100951D01*
X148619761Y-64100951D02*
X148572142Y-64148570D01*
%TO.C,J3*%
X166166666Y-30367380D02*
X166166666Y-31081666D01*
X166166666Y-31081666D02*
X166119047Y-31224523D01*
X166119047Y-31224523D02*
X166023809Y-31319761D01*
X166023809Y-31319761D02*
X165880952Y-31367380D01*
X165880952Y-31367380D02*
X165785714Y-31367380D01*
X166547619Y-30367380D02*
X167166666Y-30367380D01*
X167166666Y-30367380D02*
X166833333Y-30748333D01*
X166833333Y-30748333D02*
X166976190Y-30748333D01*
X166976190Y-30748333D02*
X167071428Y-30795952D01*
X167071428Y-30795952D02*
X167119047Y-30843571D01*
X167119047Y-30843571D02*
X167166666Y-30938809D01*
X167166666Y-30938809D02*
X167166666Y-31176904D01*
X167166666Y-31176904D02*
X167119047Y-31272142D01*
X167119047Y-31272142D02*
X167071428Y-31319761D01*
X167071428Y-31319761D02*
X166976190Y-31367380D01*
X166976190Y-31367380D02*
X166690476Y-31367380D01*
X166690476Y-31367380D02*
X166595238Y-31319761D01*
X166595238Y-31319761D02*
X166547619Y-31272142D01*
%TO.C,POT2*%
X131217380Y-67142856D02*
X130217380Y-67142856D01*
X130217380Y-67142856D02*
X130217380Y-66761904D01*
X130217380Y-66761904D02*
X130265000Y-66666666D01*
X130265000Y-66666666D02*
X130312619Y-66619047D01*
X130312619Y-66619047D02*
X130407857Y-66571428D01*
X130407857Y-66571428D02*
X130550714Y-66571428D01*
X130550714Y-66571428D02*
X130645952Y-66619047D01*
X130645952Y-66619047D02*
X130693571Y-66666666D01*
X130693571Y-66666666D02*
X130741190Y-66761904D01*
X130741190Y-66761904D02*
X130741190Y-67142856D01*
X130217380Y-65952380D02*
X130217380Y-65761904D01*
X130217380Y-65761904D02*
X130265000Y-65666666D01*
X130265000Y-65666666D02*
X130360238Y-65571428D01*
X130360238Y-65571428D02*
X130550714Y-65523809D01*
X130550714Y-65523809D02*
X130884047Y-65523809D01*
X130884047Y-65523809D02*
X131074523Y-65571428D01*
X131074523Y-65571428D02*
X131169761Y-65666666D01*
X131169761Y-65666666D02*
X131217380Y-65761904D01*
X131217380Y-65761904D02*
X131217380Y-65952380D01*
X131217380Y-65952380D02*
X131169761Y-66047618D01*
X131169761Y-66047618D02*
X131074523Y-66142856D01*
X131074523Y-66142856D02*
X130884047Y-66190475D01*
X130884047Y-66190475D02*
X130550714Y-66190475D01*
X130550714Y-66190475D02*
X130360238Y-66142856D01*
X130360238Y-66142856D02*
X130265000Y-66047618D01*
X130265000Y-66047618D02*
X130217380Y-65952380D01*
X130217380Y-65238094D02*
X130217380Y-64666666D01*
X131217380Y-64952380D02*
X130217380Y-64952380D01*
X130312619Y-64380951D02*
X130265000Y-64333332D01*
X130265000Y-64333332D02*
X130217380Y-64238094D01*
X130217380Y-64238094D02*
X130217380Y-63999999D01*
X130217380Y-63999999D02*
X130265000Y-63904761D01*
X130265000Y-63904761D02*
X130312619Y-63857142D01*
X130312619Y-63857142D02*
X130407857Y-63809523D01*
X130407857Y-63809523D02*
X130503095Y-63809523D01*
X130503095Y-63809523D02*
X130645952Y-63857142D01*
X130645952Y-63857142D02*
X131217380Y-64428570D01*
X131217380Y-64428570D02*
X131217380Y-63809523D01*
%TO.C,D1*%
X126407380Y-41233094D02*
X125407380Y-41233094D01*
X125407380Y-41233094D02*
X125407380Y-40994999D01*
X125407380Y-40994999D02*
X125455000Y-40852142D01*
X125455000Y-40852142D02*
X125550238Y-40756904D01*
X125550238Y-40756904D02*
X125645476Y-40709285D01*
X125645476Y-40709285D02*
X125835952Y-40661666D01*
X125835952Y-40661666D02*
X125978809Y-40661666D01*
X125978809Y-40661666D02*
X126169285Y-40709285D01*
X126169285Y-40709285D02*
X126264523Y-40756904D01*
X126264523Y-40756904D02*
X126359761Y-40852142D01*
X126359761Y-40852142D02*
X126407380Y-40994999D01*
X126407380Y-40994999D02*
X126407380Y-41233094D01*
X126407380Y-39709285D02*
X126407380Y-40280713D01*
X126407380Y-39994999D02*
X125407380Y-39994999D01*
X125407380Y-39994999D02*
X125550238Y-40090237D01*
X125550238Y-40090237D02*
X125645476Y-40185475D01*
X125645476Y-40185475D02*
X125693095Y-40280713D01*
%TO.C,J2*%
X103117380Y-33583333D02*
X103831666Y-33583333D01*
X103831666Y-33583333D02*
X103974523Y-33630952D01*
X103974523Y-33630952D02*
X104069761Y-33726190D01*
X104069761Y-33726190D02*
X104117380Y-33869047D01*
X104117380Y-33869047D02*
X104117380Y-33964285D01*
X103212619Y-33154761D02*
X103165000Y-33107142D01*
X103165000Y-33107142D02*
X103117380Y-33011904D01*
X103117380Y-33011904D02*
X103117380Y-32773809D01*
X103117380Y-32773809D02*
X103165000Y-32678571D01*
X103165000Y-32678571D02*
X103212619Y-32630952D01*
X103212619Y-32630952D02*
X103307857Y-32583333D01*
X103307857Y-32583333D02*
X103403095Y-32583333D01*
X103403095Y-32583333D02*
X103545952Y-32630952D01*
X103545952Y-32630952D02*
X104117380Y-33202380D01*
X104117380Y-33202380D02*
X104117380Y-32583333D01*
D13*
%TO.C,SW1*%
X118950000Y-54750000D02*
X120450000Y-54750000D01*
X122950000Y-53500000D02*
X122950000Y-49000000D01*
X116450000Y-49000000D02*
X116450000Y-53500000D01*
X120450000Y-47750000D02*
X118950000Y-47750000D01*
%TO.C,SW2*%
X127500000Y-54750000D02*
X129000000Y-54750000D01*
X131500000Y-53500000D02*
X131500000Y-49000000D01*
X125000000Y-49000000D02*
X125000000Y-53500000D01*
X129000000Y-47750000D02*
X127500000Y-47750000D01*
%TO.C,POT4*%
X166309000Y-70390000D02*
X167630000Y-70390000D01*
X166309000Y-70390000D02*
X166309000Y-66453000D01*
X170080000Y-70390000D02*
X170460000Y-70390000D01*
X172201000Y-70390000D02*
X172960000Y-70390000D01*
X174700000Y-70390000D02*
X176350000Y-70390000D01*
X176350000Y-70390000D02*
X176350000Y-66453000D01*
X166309000Y-62086000D02*
X166309000Y-58150000D01*
X176350000Y-62086000D02*
X176350000Y-58150000D01*
X166309000Y-58150000D02*
X176350000Y-58150000D01*
%TO.C,ENC1*%
X99200000Y-60300000D02*
X99200000Y-55250000D01*
X102200000Y-60300000D02*
X99200000Y-60300000D01*
X103750000Y-60300000D02*
X104750000Y-60300000D01*
X106250000Y-60300000D02*
X107250000Y-60300000D01*
X108800000Y-60300000D02*
X111800000Y-60300000D01*
X111800000Y-55250000D02*
X111800000Y-60300000D01*
X99200000Y-51750000D02*
X99200000Y-46700000D01*
X99200000Y-46700000D02*
X102000000Y-46700000D01*
X104000000Y-46700000D02*
X107000000Y-46700000D01*
X109100000Y-46700000D02*
X111800000Y-46700000D01*
X111800000Y-46700000D02*
X111800000Y-51750000D01*
%TO.C,POT1*%
X116979000Y-70670000D02*
X118300000Y-70670000D01*
X116979000Y-70670000D02*
X116979000Y-66733000D01*
X120750000Y-70670000D02*
X121130000Y-70670000D01*
X122871000Y-70670000D02*
X123630000Y-70670000D01*
X125370000Y-70670000D02*
X127020000Y-70670000D01*
X127020000Y-70670000D02*
X127020000Y-66733000D01*
X116979000Y-62366000D02*
X116979000Y-58430000D01*
X127020000Y-62366000D02*
X127020000Y-58430000D01*
X116979000Y-58430000D02*
X127020000Y-58430000D01*
%TO.C,U1*%
X188875000Y-37990000D02*
X186475000Y-37990000D01*
X188575000Y-38290000D02*
X188575000Y-56090000D01*
X137575000Y-38290000D02*
X188575000Y-38290000D01*
X188875000Y-40290000D02*
X188875000Y-37990000D01*
X188575000Y-40770000D02*
X137575000Y-40770000D01*
X189775000Y-43190000D02*
X189775000Y-51190000D01*
X188575000Y-43190000D02*
X189775000Y-43190000D01*
X189775000Y-51190000D02*
X188575000Y-51190000D01*
X188575000Y-53570000D02*
X137575000Y-53570000D01*
X188575000Y-56090000D02*
X137575000Y-56090000D01*
X137575000Y-56090000D02*
X137575000Y-38290000D01*
%TO.C,J1*%
X114520000Y-28100000D02*
X116420000Y-28100000D01*
X114520000Y-42340000D02*
X114520000Y-28100000D01*
X116420000Y-24100000D02*
X122660000Y-24100000D01*
X116420000Y-28100000D02*
X116420000Y-24100000D01*
X122660000Y-24100000D02*
X122660000Y-28100000D01*
X122660000Y-28100000D02*
X122960000Y-28100000D01*
X122960000Y-28100000D02*
X122960000Y-42340000D01*
X122960000Y-42340000D02*
X114520000Y-42340000D01*
%TO.C,POT3*%
X150929000Y-70390000D02*
X152250000Y-70390000D01*
X150929000Y-70390000D02*
X150929000Y-66453000D01*
X154700000Y-70390000D02*
X155080000Y-70390000D01*
X156821000Y-70390000D02*
X157580000Y-70390000D01*
X159320000Y-70390000D02*
X160970000Y-70390000D01*
X160970000Y-70390000D02*
X160970000Y-66453000D01*
X150929000Y-62086000D02*
X150929000Y-58150000D01*
X160970000Y-62086000D02*
X160970000Y-58150000D01*
X150929000Y-58150000D02*
X160970000Y-58150000D01*
%TO.C,J3*%
X180915000Y-36335000D02*
X169655000Y-36335000D01*
X180915000Y-35175000D02*
X180915000Y-36335000D01*
X180915000Y-31925000D02*
X180915000Y-26325000D01*
X168155000Y-36335000D02*
X168045000Y-36335000D01*
X168045000Y-36335000D02*
X168045000Y-34525000D01*
X168045000Y-32625000D02*
X168045000Y-26325000D01*
%TO.C,POT2*%
X133479000Y-70670000D02*
X134800000Y-70670000D01*
X133479000Y-70670000D02*
X133479000Y-66733000D01*
X137250000Y-70670000D02*
X137630000Y-70670000D01*
X139371000Y-70670000D02*
X140130000Y-70670000D01*
X141870000Y-70670000D02*
X143520000Y-70670000D01*
X143520000Y-70670000D02*
X143520000Y-66733000D01*
X133479000Y-62366000D02*
X133479000Y-58430000D01*
X143520000Y-62366000D02*
X143520000Y-58430000D01*
X133479000Y-58430000D02*
X143520000Y-58430000D01*
%TO.C,D1*%
X128455000Y-43055000D02*
X128920000Y-43055000D01*
X131080000Y-43055000D02*
X131545000Y-43055000D01*
X128919173Y-37707186D02*
G75*
G03*
X128455170Y-43054999I1080827J-2787814D01*
G01*
X128919572Y-38240522D02*
G75*
G03*
X128920000Y-42749683I1080428J-2254478D01*
G01*
X131080000Y-42749684D02*
G75*
G03*
X131080429Y-38240521I-1080000J2254684D01*
G01*
X131544830Y-43054999D02*
G75*
G03*
X131080827Y-37707186I-1544830J2559999D01*
G01*
%TO.C,J2*%
X104880000Y-28180000D02*
X106780000Y-28180000D01*
X104880000Y-42420000D02*
X104880000Y-28180000D01*
X106780000Y-24180000D02*
X113020000Y-24180000D01*
X106780000Y-28180000D02*
X106780000Y-24180000D01*
X113020000Y-24180000D02*
X113020000Y-28180000D01*
X113020000Y-28180000D02*
X113320000Y-28180000D01*
X113320000Y-28180000D02*
X113320000Y-42420000D01*
X113320000Y-42420000D02*
X104880000Y-42420000D01*
%TD*%
M02*
