%TF.GenerationSoftware,KiCad,Pcbnew,(7.0.0-0)*%
%TF.CreationDate,2023-06-03T23:07:31+02:00*%
%TF.ProjectId,Untitled,556e7469-746c-4656-942e-6b696361645f,rev?*%
%TF.SameCoordinates,Original*%
%TF.FileFunction,Soldermask,Top*%
%TF.FilePolarity,Negative*%
%FSLAX46Y46*%
G04 Gerber Fmt 4.6, Leading zero omitted, Abs format (unit mm)*
G04 Created by KiCad (PCBNEW (7.0.0-0)) date 2023-06-03 23:07:31*
%MOMM*%
%LPD*%
G01*
G04 APERTURE LIST*
G04 Aperture macros list*
%AMRoundRect*
0 Rectangle with rounded corners*
0 $1 Rounding radius*
0 $2 $3 $4 $5 $6 $7 $8 $9 X,Y pos of 4 corners*
0 Add a 4 corners polygon primitive as box body*
4,1,4,$2,$3,$4,$5,$6,$7,$8,$9,$2,$3,0*
0 Add four circle primitives for the rounded corners*
1,1,$1+$1,$2,$3*
1,1,$1+$1,$4,$5*
1,1,$1+$1,$6,$7*
1,1,$1+$1,$8,$9*
0 Add four rect primitives between the rounded corners*
20,1,$1+$1,$2,$3,$4,$5,0*
20,1,$1+$1,$4,$5,$6,$7,0*
20,1,$1+$1,$6,$7,$8,$9,0*
20,1,$1+$1,$8,$9,$2,$3,0*%
G04 Aperture macros list end*
%ADD10RoundRect,0.250001X0.799999X-0.799999X0.799999X0.799999X-0.799999X0.799999X-0.799999X-0.799999X0*%
%ADD11C,2.000000*%
%ADD12R,1.800000X1.800000*%
%ADD13C,1.800000*%
%ADD14RoundRect,0.750000X0.750000X-1.250000X0.750000X1.250000X-0.750000X1.250000X-0.750000X-1.250000X0*%
%ADD15C,6.400000*%
%ADD16C,1.524000*%
%ADD17O,2.900000X3.000000*%
%ADD18R,1.700000X1.700000*%
%ADD19C,1.700000*%
%ADD20C,2.800000*%
%ADD21R,0.700000X1.750000*%
%ADD22R,1.450000X1.000000*%
%ADD23R,1.000000X1.550000*%
%ADD24R,0.800000X1.500000*%
%ADD25R,1.300000X1.500000*%
%ADD26R,1.500000X1.500000*%
%ADD27R,0.800000X1.400000*%
%ADD28R,1.800000X1.070000*%
%ADD29O,1.800000X1.070000*%
G04 APERTURE END LIST*
D10*
%TO.C,3V3A1*%
X125500000Y-26000000D03*
%TD*%
D11*
%TO.C,SW1*%
X117450000Y-54500000D03*
X117450000Y-48000000D03*
X121950000Y-54500000D03*
X121950000Y-48000000D03*
%TD*%
%TO.C,SW2*%
X126000000Y-54500000D03*
X126000000Y-48000000D03*
X130500000Y-54500000D03*
X130500000Y-48000000D03*
%TD*%
D12*
%TO.C,POT4*%
X168829999Y-71269999D03*
D13*
X171330000Y-71270000D03*
X173830000Y-71270000D03*
D14*
X166930000Y-64270000D03*
X175730000Y-64270000D03*
%TD*%
D10*
%TO.C,A6*%
X132500000Y-26000000D03*
%TD*%
D15*
%TO.C,H4*%
X186000000Y-69500000D03*
%TD*%
D10*
%TO.C,3V3D1*%
X136000000Y-26000000D03*
%TD*%
D15*
%TO.C,H2*%
X186000000Y-27000000D03*
%TD*%
D10*
%TO.C,GND1*%
X139500000Y-26000000D03*
%TD*%
D15*
%TO.C,H1*%
X100750000Y-27000000D03*
%TD*%
D10*
%TO.C,SS1*%
X164000000Y-26000000D03*
%TD*%
%TO.C,SDA1*%
X150000000Y-26000000D03*
%TD*%
D16*
%TO.C,ENC1*%
X103000000Y-61000000D03*
X108000000Y-61000000D03*
X105500000Y-61000000D03*
X103000000Y-46500000D03*
X108000000Y-46500000D03*
D17*
X98899999Y-53499999D03*
X112099999Y-53499999D03*
%TD*%
D12*
%TO.C,POT1*%
X119499999Y-71549999D03*
D13*
X122000000Y-71550000D03*
X124500000Y-71550000D03*
D14*
X117600000Y-64550000D03*
X126400000Y-64550000D03*
%TD*%
D10*
%TO.C,SCL1*%
X146500000Y-26000000D03*
%TD*%
D18*
%TO.C,U1*%
X187174999Y-39569999D03*
D19*
X184635000Y-39570000D03*
X182095000Y-39570000D03*
X179555000Y-39570000D03*
X177015000Y-39570000D03*
X174475000Y-39570000D03*
X171935000Y-39570000D03*
X169395000Y-39570000D03*
X166855000Y-39570000D03*
X164315000Y-39570000D03*
X161775000Y-39570000D03*
X159235000Y-39570000D03*
X156695000Y-39570000D03*
X154155000Y-39570000D03*
X151615000Y-39570000D03*
X149075000Y-39570000D03*
X146535000Y-39570000D03*
X143995000Y-39570000D03*
X141455000Y-39570000D03*
X138915000Y-39570000D03*
X138915000Y-54810000D03*
X141455000Y-54810000D03*
X143995000Y-54810000D03*
X146535000Y-54810000D03*
X149075000Y-54810000D03*
X151615000Y-54810000D03*
X154155000Y-54810000D03*
X156695000Y-54810000D03*
X159235000Y-54810000D03*
X161775000Y-54810000D03*
X164315000Y-54810000D03*
X166855000Y-54810000D03*
X169395000Y-54810000D03*
X171935000Y-54810000D03*
X174475000Y-54810000D03*
X177015000Y-54810000D03*
X179555000Y-54810000D03*
X182095000Y-54810000D03*
X184635000Y-54810000D03*
X187175000Y-54810000D03*
%TD*%
D20*
%TO.C,J1*%
X120640000Y-37320000D03*
X118640000Y-29420000D03*
X120640000Y-31820000D03*
%TD*%
D10*
%TO.C,A0*%
X129000000Y-26000000D03*
%TD*%
%TO.C,MO1*%
X153500000Y-26000000D03*
%TD*%
D12*
%TO.C,POT3*%
X153449999Y-71269999D03*
D13*
X155950000Y-71270000D03*
X158450000Y-71270000D03*
D14*
X151550000Y-64270000D03*
X160350000Y-64270000D03*
%TD*%
D15*
%TO.C,H3*%
X101000000Y-69500000D03*
%TD*%
D10*
%TO.C,MI1*%
X157000000Y-26000000D03*
%TD*%
D21*
%TO.C,J3*%
X171304999Y-25199999D03*
X172404999Y-25199999D03*
X173504999Y-25199999D03*
X174604999Y-25199999D03*
X175704999Y-25199999D03*
X176804999Y-25199999D03*
X177904999Y-25199999D03*
X179004999Y-25199999D03*
D22*
X180129999Y-34424999D03*
D23*
X168904999Y-35999999D03*
D24*
X180454999Y-32924999D03*
D25*
X180204999Y-25324999D03*
D26*
X168854999Y-25324999D03*
D27*
X168504999Y-33574999D03*
%TD*%
D12*
%TO.C,POT2*%
X135999999Y-71549999D03*
D13*
X138500000Y-71550000D03*
X141000000Y-71550000D03*
D14*
X134100000Y-64550000D03*
X142900000Y-64550000D03*
%TD*%
D28*
%TO.C,D1*%
X129999999Y-42399999D03*
D29*
X129999999Y-41129999D03*
X129999999Y-39859999D03*
X129999999Y-38589999D03*
%TD*%
D20*
%TO.C,J2*%
X111000000Y-37400000D03*
X109000000Y-29500000D03*
X111000000Y-31900000D03*
%TD*%
D10*
%TO.C,VIN1*%
X143000000Y-26000000D03*
%TD*%
%TO.C,SCK1*%
X160500000Y-26000000D03*
%TD*%
M02*
