%TF.GenerationSoftware,KiCad,Pcbnew,(7.0.0-0)*%
%TF.CreationDate,2023-06-03T23:07:31+02:00*%
%TF.ProjectId,Untitled,556e7469-746c-4656-942e-6b696361645f,rev?*%
%TF.SameCoordinates,Original*%
%TF.FileFunction,Legend,Bot*%
%TF.FilePolarity,Positive*%
%FSLAX46Y46*%
G04 Gerber Fmt 4.6, Leading zero omitted, Abs format (unit mm)*
G04 Created by KiCad (PCBNEW (7.0.0-0)) date 2023-06-03 23:07:31*
%MOMM*%
%LPD*%
G01*
G04 APERTURE LIST*
%ADD10C,0.150000*%
%ADD11C,0.120000*%
G04 APERTURE END LIST*
D10*
%TO.C,R1*%
X177367380Y-32333333D02*
X176891190Y-32000000D01*
X177367380Y-31761905D02*
X176367380Y-31761905D01*
X176367380Y-31761905D02*
X176367380Y-32142857D01*
X176367380Y-32142857D02*
X176415000Y-32238095D01*
X176415000Y-32238095D02*
X176462619Y-32285714D01*
X176462619Y-32285714D02*
X176557857Y-32333333D01*
X176557857Y-32333333D02*
X176700714Y-32333333D01*
X176700714Y-32333333D02*
X176795952Y-32285714D01*
X176795952Y-32285714D02*
X176843571Y-32238095D01*
X176843571Y-32238095D02*
X176891190Y-32142857D01*
X176891190Y-32142857D02*
X176891190Y-31761905D01*
X177367380Y-33285714D02*
X177367380Y-32714286D01*
X177367380Y-33000000D02*
X176367380Y-33000000D01*
X176367380Y-33000000D02*
X176510238Y-32904762D01*
X176510238Y-32904762D02*
X176605476Y-32809524D01*
X176605476Y-32809524D02*
X176653095Y-32714286D01*
%TO.C,R6*%
X138166666Y-41867380D02*
X138499999Y-41391190D01*
X138738094Y-41867380D02*
X138738094Y-40867380D01*
X138738094Y-40867380D02*
X138357142Y-40867380D01*
X138357142Y-40867380D02*
X138261904Y-40915000D01*
X138261904Y-40915000D02*
X138214285Y-40962619D01*
X138214285Y-40962619D02*
X138166666Y-41057857D01*
X138166666Y-41057857D02*
X138166666Y-41200714D01*
X138166666Y-41200714D02*
X138214285Y-41295952D01*
X138214285Y-41295952D02*
X138261904Y-41343571D01*
X138261904Y-41343571D02*
X138357142Y-41391190D01*
X138357142Y-41391190D02*
X138738094Y-41391190D01*
X137309523Y-40867380D02*
X137499999Y-40867380D01*
X137499999Y-40867380D02*
X137595237Y-40915000D01*
X137595237Y-40915000D02*
X137642856Y-40962619D01*
X137642856Y-40962619D02*
X137738094Y-41105476D01*
X137738094Y-41105476D02*
X137785713Y-41295952D01*
X137785713Y-41295952D02*
X137785713Y-41676904D01*
X137785713Y-41676904D02*
X137738094Y-41772142D01*
X137738094Y-41772142D02*
X137690475Y-41819761D01*
X137690475Y-41819761D02*
X137595237Y-41867380D01*
X137595237Y-41867380D02*
X137404761Y-41867380D01*
X137404761Y-41867380D02*
X137309523Y-41819761D01*
X137309523Y-41819761D02*
X137261904Y-41772142D01*
X137261904Y-41772142D02*
X137214285Y-41676904D01*
X137214285Y-41676904D02*
X137214285Y-41438809D01*
X137214285Y-41438809D02*
X137261904Y-41343571D01*
X137261904Y-41343571D02*
X137309523Y-41295952D01*
X137309523Y-41295952D02*
X137404761Y-41248333D01*
X137404761Y-41248333D02*
X137595237Y-41248333D01*
X137595237Y-41248333D02*
X137690475Y-41295952D01*
X137690475Y-41295952D02*
X137738094Y-41343571D01*
X137738094Y-41343571D02*
X137785713Y-41438809D01*
%TO.C,R3*%
X182867380Y-32333333D02*
X182391190Y-32000000D01*
X182867380Y-31761905D02*
X181867380Y-31761905D01*
X181867380Y-31761905D02*
X181867380Y-32142857D01*
X181867380Y-32142857D02*
X181915000Y-32238095D01*
X181915000Y-32238095D02*
X181962619Y-32285714D01*
X181962619Y-32285714D02*
X182057857Y-32333333D01*
X182057857Y-32333333D02*
X182200714Y-32333333D01*
X182200714Y-32333333D02*
X182295952Y-32285714D01*
X182295952Y-32285714D02*
X182343571Y-32238095D01*
X182343571Y-32238095D02*
X182391190Y-32142857D01*
X182391190Y-32142857D02*
X182391190Y-31761905D01*
X181867380Y-32666667D02*
X181867380Y-33285714D01*
X181867380Y-33285714D02*
X182248333Y-32952381D01*
X182248333Y-32952381D02*
X182248333Y-33095238D01*
X182248333Y-33095238D02*
X182295952Y-33190476D01*
X182295952Y-33190476D02*
X182343571Y-33238095D01*
X182343571Y-33238095D02*
X182438809Y-33285714D01*
X182438809Y-33285714D02*
X182676904Y-33285714D01*
X182676904Y-33285714D02*
X182772142Y-33238095D01*
X182772142Y-33238095D02*
X182819761Y-33190476D01*
X182819761Y-33190476D02*
X182867380Y-33095238D01*
X182867380Y-33095238D02*
X182867380Y-32809524D01*
X182867380Y-32809524D02*
X182819761Y-32714286D01*
X182819761Y-32714286D02*
X182772142Y-32666667D01*
%TO.C,R5*%
X174867380Y-32333333D02*
X174391190Y-32000000D01*
X174867380Y-31761905D02*
X173867380Y-31761905D01*
X173867380Y-31761905D02*
X173867380Y-32142857D01*
X173867380Y-32142857D02*
X173915000Y-32238095D01*
X173915000Y-32238095D02*
X173962619Y-32285714D01*
X173962619Y-32285714D02*
X174057857Y-32333333D01*
X174057857Y-32333333D02*
X174200714Y-32333333D01*
X174200714Y-32333333D02*
X174295952Y-32285714D01*
X174295952Y-32285714D02*
X174343571Y-32238095D01*
X174343571Y-32238095D02*
X174391190Y-32142857D01*
X174391190Y-32142857D02*
X174391190Y-31761905D01*
X173867380Y-33238095D02*
X173867380Y-32761905D01*
X173867380Y-32761905D02*
X174343571Y-32714286D01*
X174343571Y-32714286D02*
X174295952Y-32761905D01*
X174295952Y-32761905D02*
X174248333Y-32857143D01*
X174248333Y-32857143D02*
X174248333Y-33095238D01*
X174248333Y-33095238D02*
X174295952Y-33190476D01*
X174295952Y-33190476D02*
X174343571Y-33238095D01*
X174343571Y-33238095D02*
X174438809Y-33285714D01*
X174438809Y-33285714D02*
X174676904Y-33285714D01*
X174676904Y-33285714D02*
X174772142Y-33238095D01*
X174772142Y-33238095D02*
X174819761Y-33190476D01*
X174819761Y-33190476D02*
X174867380Y-33095238D01*
X174867380Y-33095238D02*
X174867380Y-32857143D01*
X174867380Y-32857143D02*
X174819761Y-32761905D01*
X174819761Y-32761905D02*
X174772142Y-32714286D01*
%TO.C,R4*%
X184867380Y-32333333D02*
X184391190Y-32000000D01*
X184867380Y-31761905D02*
X183867380Y-31761905D01*
X183867380Y-31761905D02*
X183867380Y-32142857D01*
X183867380Y-32142857D02*
X183915000Y-32238095D01*
X183915000Y-32238095D02*
X183962619Y-32285714D01*
X183962619Y-32285714D02*
X184057857Y-32333333D01*
X184057857Y-32333333D02*
X184200714Y-32333333D01*
X184200714Y-32333333D02*
X184295952Y-32285714D01*
X184295952Y-32285714D02*
X184343571Y-32238095D01*
X184343571Y-32238095D02*
X184391190Y-32142857D01*
X184391190Y-32142857D02*
X184391190Y-31761905D01*
X184200714Y-33190476D02*
X184867380Y-33190476D01*
X183819761Y-32952381D02*
X184534047Y-32714286D01*
X184534047Y-32714286D02*
X184534047Y-33333333D01*
%TO.C,R8*%
X135166666Y-37117380D02*
X135499999Y-36641190D01*
X135738094Y-37117380D02*
X135738094Y-36117380D01*
X135738094Y-36117380D02*
X135357142Y-36117380D01*
X135357142Y-36117380D02*
X135261904Y-36165000D01*
X135261904Y-36165000D02*
X135214285Y-36212619D01*
X135214285Y-36212619D02*
X135166666Y-36307857D01*
X135166666Y-36307857D02*
X135166666Y-36450714D01*
X135166666Y-36450714D02*
X135214285Y-36545952D01*
X135214285Y-36545952D02*
X135261904Y-36593571D01*
X135261904Y-36593571D02*
X135357142Y-36641190D01*
X135357142Y-36641190D02*
X135738094Y-36641190D01*
X134595237Y-36545952D02*
X134690475Y-36498333D01*
X134690475Y-36498333D02*
X134738094Y-36450714D01*
X134738094Y-36450714D02*
X134785713Y-36355476D01*
X134785713Y-36355476D02*
X134785713Y-36307857D01*
X134785713Y-36307857D02*
X134738094Y-36212619D01*
X134738094Y-36212619D02*
X134690475Y-36165000D01*
X134690475Y-36165000D02*
X134595237Y-36117380D01*
X134595237Y-36117380D02*
X134404761Y-36117380D01*
X134404761Y-36117380D02*
X134309523Y-36165000D01*
X134309523Y-36165000D02*
X134261904Y-36212619D01*
X134261904Y-36212619D02*
X134214285Y-36307857D01*
X134214285Y-36307857D02*
X134214285Y-36355476D01*
X134214285Y-36355476D02*
X134261904Y-36450714D01*
X134261904Y-36450714D02*
X134309523Y-36498333D01*
X134309523Y-36498333D02*
X134404761Y-36545952D01*
X134404761Y-36545952D02*
X134595237Y-36545952D01*
X134595237Y-36545952D02*
X134690475Y-36593571D01*
X134690475Y-36593571D02*
X134738094Y-36641190D01*
X134738094Y-36641190D02*
X134785713Y-36736428D01*
X134785713Y-36736428D02*
X134785713Y-36926904D01*
X134785713Y-36926904D02*
X134738094Y-37022142D01*
X134738094Y-37022142D02*
X134690475Y-37069761D01*
X134690475Y-37069761D02*
X134595237Y-37117380D01*
X134595237Y-37117380D02*
X134404761Y-37117380D01*
X134404761Y-37117380D02*
X134309523Y-37069761D01*
X134309523Y-37069761D02*
X134261904Y-37022142D01*
X134261904Y-37022142D02*
X134214285Y-36926904D01*
X134214285Y-36926904D02*
X134214285Y-36736428D01*
X134214285Y-36736428D02*
X134261904Y-36641190D01*
X134261904Y-36641190D02*
X134309523Y-36593571D01*
X134309523Y-36593571D02*
X134404761Y-36545952D01*
%TO.C,R7*%
X138166666Y-44117380D02*
X138499999Y-43641190D01*
X138738094Y-44117380D02*
X138738094Y-43117380D01*
X138738094Y-43117380D02*
X138357142Y-43117380D01*
X138357142Y-43117380D02*
X138261904Y-43165000D01*
X138261904Y-43165000D02*
X138214285Y-43212619D01*
X138214285Y-43212619D02*
X138166666Y-43307857D01*
X138166666Y-43307857D02*
X138166666Y-43450714D01*
X138166666Y-43450714D02*
X138214285Y-43545952D01*
X138214285Y-43545952D02*
X138261904Y-43593571D01*
X138261904Y-43593571D02*
X138357142Y-43641190D01*
X138357142Y-43641190D02*
X138738094Y-43641190D01*
X137833332Y-43117380D02*
X137166666Y-43117380D01*
X137166666Y-43117380D02*
X137595237Y-44117380D01*
%TO.C,R2*%
X180367380Y-32333333D02*
X179891190Y-32000000D01*
X180367380Y-31761905D02*
X179367380Y-31761905D01*
X179367380Y-31761905D02*
X179367380Y-32142857D01*
X179367380Y-32142857D02*
X179415000Y-32238095D01*
X179415000Y-32238095D02*
X179462619Y-32285714D01*
X179462619Y-32285714D02*
X179557857Y-32333333D01*
X179557857Y-32333333D02*
X179700714Y-32333333D01*
X179700714Y-32333333D02*
X179795952Y-32285714D01*
X179795952Y-32285714D02*
X179843571Y-32238095D01*
X179843571Y-32238095D02*
X179891190Y-32142857D01*
X179891190Y-32142857D02*
X179891190Y-31761905D01*
X179462619Y-32714286D02*
X179415000Y-32761905D01*
X179415000Y-32761905D02*
X179367380Y-32857143D01*
X179367380Y-32857143D02*
X179367380Y-33095238D01*
X179367380Y-33095238D02*
X179415000Y-33190476D01*
X179415000Y-33190476D02*
X179462619Y-33238095D01*
X179462619Y-33238095D02*
X179557857Y-33285714D01*
X179557857Y-33285714D02*
X179653095Y-33285714D01*
X179653095Y-33285714D02*
X179795952Y-33238095D01*
X179795952Y-33238095D02*
X180367380Y-32666667D01*
X180367380Y-32666667D02*
X180367380Y-33285714D01*
D11*
%TO.C,R1*%
X177735000Y-35360436D02*
X177735000Y-35814564D01*
X176265000Y-35360436D02*
X176265000Y-35814564D01*
%TO.C,R6*%
X135227064Y-41735000D02*
X134772936Y-41735000D01*
X135227064Y-40265000D02*
X134772936Y-40265000D01*
%TO.C,R3*%
X182735000Y-35272936D02*
X182735000Y-35727064D01*
X181265000Y-35272936D02*
X181265000Y-35727064D01*
%TO.C,R5*%
X175235000Y-35272936D02*
X175235000Y-35727064D01*
X173765000Y-35272936D02*
X173765000Y-35727064D01*
%TO.C,R4*%
X185235000Y-35272936D02*
X185235000Y-35727064D01*
X183765000Y-35272936D02*
X183765000Y-35727064D01*
%TO.C,R8*%
X135227064Y-39235000D02*
X134772936Y-39235000D01*
X135227064Y-37765000D02*
X134772936Y-37765000D01*
%TO.C,R7*%
X135227064Y-44235000D02*
X134772936Y-44235000D01*
X135227064Y-42765000D02*
X134772936Y-42765000D01*
%TO.C,R2*%
X180235000Y-35272936D02*
X180235000Y-35727064D01*
X178765000Y-35272936D02*
X178765000Y-35727064D01*
%TD*%
M02*
