M48
; DRILL file {KiCad (7.0.0-0)} date Saturday, 03 June 2023 at 23:07:33
; FORMAT={-:-/ absolute / metric / decimal}
; #@! TF.CreationDate,2023-06-03T23:07:33+02:00
; #@! TF.GenerationSoftware,Kicad,Pcbnew,(7.0.0-0)
; #@! TF.FileFunction,Plated,1,2,PTH
FMAT,2
METRIC
; #@! TA.AperFunction,Plated,PTH,ViaDrill
T1C0.400
; #@! TA.AperFunction,Plated,PTH,ComponentDrill
T2C0.900
; #@! TA.AperFunction,Plated,PTH,ComponentDrill
T3C1.000
; #@! TA.AperFunction,Plated,PTH,ComponentDrill
T4C1.100
; #@! TA.AperFunction,Plated,PTH,ComponentDrill
T5C1.800
; #@! TA.AperFunction,Plated,PTH,ComponentDrill
T6C2.000
; #@! TA.AperFunction,Plated,PTH,ComponentDrill
T7C2.100
; #@! TA.AperFunction,Plated,PTH,ComponentDrill
T8C3.200
%
G90
G05
T1
X116.25Y-57.0
X139.0Y-49.25
X146.75Y-33.75
X150.25Y-47.25
X156.0Y-52.0
X166.5Y-33.5
X166.75Y-25.25
X171.5Y-44.0
X172.5Y-33.25
X176.0Y-27.5
X178.5Y-32.75
X182.0Y-24.5
T2
X130.0Y-38.59
X130.0Y-39.86
X130.0Y-41.13
X130.0Y-42.4
T3
X103.0Y-46.5
X103.0Y-61.0
X105.5Y-61.0
X108.0Y-46.5
X108.0Y-61.0
X119.5Y-71.55
X122.0Y-71.55
X124.5Y-71.55
X136.0Y-71.55
X138.5Y-71.55
X141.0Y-71.55
X153.45Y-71.27
X155.95Y-71.27
X158.45Y-71.27
X168.83Y-71.27
X171.33Y-71.27
X173.83Y-71.27
T4
X117.45Y-48.0
X117.45Y-54.5
X121.95Y-48.0
X121.95Y-54.5
X125.5Y-26.0
X126.0Y-48.0
X126.0Y-54.5
X129.0Y-26.0
X130.5Y-48.0
X130.5Y-54.5
X132.5Y-26.0
X136.0Y-26.0
X138.915Y-39.57
X138.915Y-54.81
X139.5Y-26.0
X141.455Y-39.57
X141.455Y-54.81
X143.0Y-26.0
X143.995Y-39.57
X143.995Y-54.81
X146.5Y-26.0
X146.535Y-39.57
X146.535Y-54.81
X149.075Y-39.57
X149.075Y-54.81
X150.0Y-26.0
X151.615Y-39.57
X151.615Y-54.81
X153.5Y-26.0
X154.155Y-39.57
X154.155Y-54.81
X156.695Y-39.57
X156.695Y-54.81
X157.0Y-26.0
X159.235Y-39.57
X159.235Y-54.81
X160.5Y-26.0
X161.775Y-39.57
X161.775Y-54.81
X164.0Y-26.0
X164.315Y-39.57
X164.315Y-54.81
X166.855Y-39.57
X166.855Y-54.81
X169.395Y-39.57
X169.395Y-54.81
X171.935Y-39.57
X171.935Y-54.81
X174.475Y-39.57
X174.475Y-54.81
X177.015Y-39.57
X177.015Y-54.81
X179.555Y-39.57
X179.555Y-54.81
X182.095Y-39.57
X182.095Y-54.81
X184.635Y-39.57
X184.635Y-54.81
X187.175Y-39.57
X187.175Y-54.81
T6
X109.0Y-29.5
X111.0Y-31.9
X111.0Y-37.4
X118.64Y-29.42
X120.64Y-31.82
X120.64Y-37.32
T8
X100.75Y-27.0
X101.0Y-69.5
X186.0Y-27.0
X186.0Y-69.5
T5
G00X117.6Y-64.7
M15
G01X117.6Y-64.4
M16
G05
G00X126.4Y-64.7
M15
G01X126.4Y-64.4
M16
G05
G00X134.1Y-64.7
M15
G01X134.1Y-64.4
M16
G05
G00X142.9Y-64.7
M15
G01X142.9Y-64.4
M16
G05
G00X151.55Y-64.42
M15
G01X151.55Y-64.12
M16
G05
G00X160.35Y-64.42
M15
G01X160.35Y-64.12
M16
G05
G00X166.93Y-64.42
M15
G01X166.93Y-64.12
M16
G05
G00X175.73Y-64.42
M15
G01X175.73Y-64.12
M16
G05
T7
G00X98.9Y-53.45
M15
G01X98.9Y-53.55
M16
G05
G00X112.1Y-53.45
M15
G01X112.1Y-53.55
M16
G05
T0
M30
